<svg xmlns:xlink="http://www.w3.org/1999/xlink" xmlns="http://www.w3.org/2000/svg" viewBox="20 20 99 100"><script xlink:href="https://dl.dropboxusercontent.com/s/dc5ccodrwl4h2r0/symbol.js"></script>
  
      <use height="105.75" id="letter4" transform="matrix(1, 0, 0, 1, -1380, 20)" width="2900" xlink:href="#sprite0"></use>
      <use height="128.5" id="letter3" transform="matrix(1, 0, 0, 1, -1380, 13.25)" width="2900" xlink:href="#sprite16"></use>
      <use height="111.5" id="letter2" transform="matrix(1, 0, 0, 1, -1380, 20)" width="2900" xlink:href="#sprite32"></use>
      <use height="114.5" id="letter1" transform="matrix(1, 0, 0, 1, -1380, 9.5)" width="2900" xlink:href="#sprite47"></use>
    
  <defs>
    <g id="shape0" transform="matrix(1, 0, 0, 1, -20, -20)">
      <path d="M119.0 120.0 L20.0 120.0 20.0 20.0 119.0 20.0 119.0 120" fill="#feeb9d" fill-rule="evenodd" stroke="none"></path>
    </g>
    <g id="sprite0" transform="matrix(1, 0, 0, 1, 1400, 50)">
      <use height="100" transform="matrix(1, 0, 0, 1, 0, -50)" width="1500" xlink:href="#shape1"></use>
      <use height="36.75" transform="matrix(1, 0, 0, 1, 1.2, 13.2)" width="97.6" xlink:href="#sprite1"></use>
      <use height="96.5" transform="matrix(1, 0, 0, 1, 146.65, -46.05)" width="8" xlink:href="#sprite2"></use>
      <use height="35.4" transform="matrix(1, 0, 0, 1, 204, 14.65)" width="93.95" xlink:href="#sprite3"></use>
      <use height="38" transform="matrix(1, 0, 0, 1, 301, 11.95)" width="97" xlink:href="#sprite4"></use>
      <use height="95.9" transform="matrix(1, 0, 0, 1, 401.3, -47.15)" width="36.85" xlink:href="#sprite5"></use>
      <use height="42.2" transform="matrix(1, 0, 0, 1, 502.25, 7.25)" width="95.9" xlink:href="#sprite6"></use>
      <use height="69.2" transform="matrix(1, 0, 0, 1, 601, -48)" width="84.45" xlink:href="#sprite7"></use>
      <use height="24.1" transform="matrix(1, 0, 0, 1, 702.55, 24.85)" width="92.9" xlink:href="#sprite8"></use>
      <use height="32.95" transform="matrix(1, 0, 0, 1, 834.85, 17)" width="30.9" xlink:href="#sprite9"></use>
      <use height="8" transform="matrix(1, 0, 0, 1, 928.25, -25)" width="70.4" xlink:href="#sprite10"></use>
      <use height="41" transform="matrix(1, 0, 0, 1, 1028.4, -20.5)" width="69.2" xlink:href="#sprite11"></use>
      <use height="35.15" transform="matrix(1, 0, 0, 1, 1133.15, 12.7)" width="31.9" xlink:href="#sprite12"></use>
      <use height="8" transform="matrix(1, 0, 0, 1, 1229.7, -3.05)" width="40.1" xlink:href="#sprite13"></use>
      <use height="42.2" transform="matrix(1, 0, 0, 1, 1325.2, -50)" width="45.85" xlink:href="#sprite14"></use>
      <use height="39" transform="matrix(1, 0, 0, 1, 1420.65, -50)" width="57" xlink:href="#sprite15"></use>
    </g>
    <g id="shape1" transform="matrix(1, 0, 0, 1, 1400, 50)">
      <path d="M100.0 -50.0 L100.0 50.0 -1400.0 50.0 -1400.0 -50.0 100.0 -50" fill="#feeb9d" fill-opacity="0" fill-rule="evenodd" stroke="none"></path>
    </g>
    <g id="sprite1" transform="matrix(1, 0, 0, 1, 3, 3)">
      <use height="36.75" transform="matrix(1, 0, 0, 1, -3, -3)" width="97.6" xlink:href="#shape2"></use>
    </g>
    <g id="shape2" transform="matrix(1, 0, 0, 1, 3, 3)">
      <path d="M1.0 1.0 L1.0 29.75 90.6 29.75" fill="none" stroke="#feeb9d" stroke-linecap="round" stroke-linejoin="round" stroke-width="8"></path>
    </g>
    <g id="sprite2" transform="matrix(1, 0, 0, 1, 4, -1)">
      <use height="96.5" transform="matrix(1, 0, 0, 1, -4, 1)" width="8" xlink:href="#shape3"></use>
    </g>
    <g id="shape3" transform="matrix(1, 0, 0, 1, 4, -1)">
      <path d="M0.0 5.0 L0.0 93.5" fill="none" stroke="#feeb9d" stroke-linecap="round" stroke-linejoin="round" stroke-width="8"></path>
    </g>
    <g id="sprite3" transform="matrix(1, 0, 0, 1, 4, 9.1)">
      <use height="35.4" transform="matrix(1, 0, 0, 1, -4, -9.1)" width="93.95" xlink:href="#shape4"></use>
    </g>
    <g id="shape4" transform="matrix(1, 0, 0, 1, 4, 9.1)">
      <path d="M0.0 22.3 L41.95 22.3 41.95 -5.1 M85.95 22.3 L41.95 22.3" fill="none" stroke="#feeb9d" stroke-linecap="round" stroke-linejoin="round" stroke-width="8"></path>
    </g>
    <g id="sprite4" transform="matrix(1, 0, 0, 1, 6, 4)">
      <use height="38" transform="matrix(1, 0, 0, 1, -6, -4)" width="97" xlink:href="#shape5"></use>
    </g>
    <g id="shape5" transform="matrix(1, 0, 0, 1, 6, 4)">
      <path d="M-2.0 30.0 L87.0 30.0 58.55 0" fill="none" stroke="#feeb9d" stroke-linecap="round" stroke-linejoin="round" stroke-width="8"></path>
    </g>
    <g id="sprite5" transform="matrix(1, 0, 0, 1, 2.65, 1)">
      <use height="95.9" transform="matrix(1, 0, 0, 1, -2.65, -1)" width="36.85" xlink:href="#shape6"></use>
    </g>
    <g id="shape6" transform="matrix(1, 0, 0, 1, 2.65, 1)">
      <path d="M1.35 3.0 Q1.3 48.9 2.35 76.75 3.5 80.05 4.85 82.5 9.5 90.85 15.95 90.9 19.6 90.85 21.85 89.15 23.8 87.6 26.6 83.0 27.4 81.6 29.4 75.85 L30.2 3" fill="none" stroke="#feeb9d" stroke-linecap="round" stroke-linejoin="round" stroke-width="8"></path>
    </g>
    <g id="sprite6" transform="matrix(1, 0, 0, 1, 4, 4)">
      <use height="42.2" transform="matrix(1, 0, 0, 1, -4, -4)" width="95.9" xlink:href="#shape7"></use>
    </g>
    <g id="shape7" transform="matrix(1, 0, 0, 1, 4, 4)">
      <path d="M87.9 34.2 Q35.15 2.9 26.0 0.7 16.9 -1.5 8.8 3.2 2.35 7.0 0.55 14.1 -1.25 21.1 2.65 27.4 5.75 32.4 11.65 33.8 L15.6 34.2 Q19.25 34.15 22.65 32.2 26.75 29.75 27.95 25.25 29.1 20.65 26.6 16.7 24.6 13.5 20.85 12.6 L17.75 12.4" fill="none" stroke="#feeb9d" stroke-linecap="round" stroke-linejoin="round" stroke-width="8"></path>
    </g>
    <g id="sprite7" transform="matrix(1, 0, 0, 1, 2, 0)">
      <use height="69.2" transform="matrix(1, 0, 0, 1, -2, 0)" width="84.45" xlink:href="#shape8"></use>
    </g>
    <g id="shape8" transform="matrix(1, 0, 0, 1, 2, 0)">
      <path d="M78.45 35.65 L2.0 35.65 2.0 4.0 M78.45 38.65 L78.45 65.2 3.05 65.2" fill="none" stroke="#feeb9d" stroke-linecap="round" stroke-linejoin="round" stroke-width="8"></path>
    </g>
    <g id="sprite8" transform="matrix(1, 0, 0, 1, 0.2, 3.95)">
      <use height="24.1" transform="matrix(1, 0, 0, 1, -0.2, -3.95)" width="92.9" xlink:href="#shape9"></use>
    </g>
    <g id="shape9" transform="matrix(1, 0, 0, 1, 0.2, 3.95)">
      <path d="M88.7 16.15 Q65.5 0.05 45.0 0.05 24.45 0.05 3.8 16.15" fill="none" stroke="#feeb9d" stroke-linecap="round" stroke-linejoin="round" stroke-width="8"></path>
    </g>
    <g id="sprite9" transform="matrix(1, 0, 0, 1, 0, 2)">
      <use height="32.95" transform="matrix(1, 0, 0, 1, 0, -2)" width="30.9" xlink:href="#shape10"></use>
    </g>
    <g id="shape10" transform="matrix(1, 0, 0, 1, 0, 2)">
      <path d="M4.0 26.95 L4.0 2.0 26.9 2.0 26.9 26.95 4.0 26.95 Z" fill="none" stroke="#feeb9d" stroke-linecap="round" stroke-linejoin="round" stroke-width="8"></path>
    </g>
    <g id="sprite10" transform="matrix(1, 0, 0, 1, 7, 4)">
      <use height="8" transform="matrix(1, 0, 0, 1, -7, -4)" width="70.4" xlink:href="#shape11"></use>
    </g>
    <g id="shape11" transform="matrix(1, 0, 0, 1, 7, 4)">
      <path d="M59.4 0.0 L-3.0 0" fill="none" stroke="#feeb9d" stroke-linecap="round" stroke-linejoin="round" stroke-width="8"></path>
    </g>
    <g id="sprite11" transform="matrix(1, 0, 0, 1, 7, 3)">
      <use height="41" transform="matrix(1, 0, 0, 1, -7, -3)" width="69.2" xlink:href="#shape12"></use>
    </g>
    <g id="shape12" transform="matrix(1, 0, 0, 1, 7, 3)">
      <path d="M58.2 34.0 L-3.0 34.0 32.2 1" fill="none" stroke="#feeb9d" stroke-linecap="round" stroke-linejoin="round" stroke-width="8"></path>
    </g>
    <g id="sprite12" transform="matrix(1, 0, 0, 1, 5, 9.15)">
      <use height="35.15" transform="matrix(1, 0, 0, 1, -5, -9.15)" width="31.9" xlink:href="#shape13"></use>
    </g>
    <g id="shape13" transform="matrix(1, 0, 0, 1, 5, 9.15)">
      <path d="M-1.0 22.0 L-1.0 -5.15 22.9 -5.15 22.9 19.5 22.7 22" fill="none" stroke="#feeb9d" stroke-linecap="round" stroke-linejoin="round" stroke-width="8"></path>
    </g>
    <g id="sprite13" transform="matrix(1, 0, 0, 1, 5, 4)">
      <use height="8" transform="matrix(1, 0, 0, 1, -5, -4)" width="40.1" xlink:href="#shape14"></use>
    </g>
    <g id="shape14" transform="matrix(1, 0, 0, 1, 5, 4)">
      <path d="M31.1 0.0 L-1.0 0" fill="none" stroke="#feeb9d" stroke-linecap="round" stroke-linejoin="round" stroke-width="8"></path>
    </g>
    <g id="sprite14" transform="matrix(1, 0, 0, 1, 4, 4)">
      <use height="42.2" transform="matrix(1, 0, 0, 1, -4, -4)" width="45.85" xlink:href="#shape15"></use>
    </g>
    <g id="shape15" transform="matrix(1, 0, 0, 1, 4, 4)">
      <path d="M0.0 21.0 Q2.7 31.3 11.85 33.5 20.95 35.7 29.05 31.0 35.5 27.2 37.3 20.15 39.1 13.1 35.2 6.85 32.1 1.8 26.25 0.45 L22.3 0.0 Q18.6 0.05 15.2 2.05 11.1 4.45 9.95 9.0 8.75 13.55 11.3 17.55 13.25 20.7 17.0 21.6 L20.1 21.85" fill="none" stroke="#feeb9d" stroke-linecap="round" stroke-linejoin="round" stroke-width="8"></path>
    </g>
    <g id="sprite15" transform="matrix(1, 0, 0, 1, 4, 5)">
      <use height="39" transform="matrix(1, 0, 0, 1, -4, -5)" width="57" xlink:href="#shape16"></use>
    </g>
    <g id="shape16" transform="matrix(1, 0, 0, 1, 4, 4)">
      <path d="M0.0 0.0 L49.0 0.0 49.0 31.0 0.0 31.0 0.0 0.0 Z" fill="none" stroke="#feeb9d" stroke-linecap="round" stroke-linejoin="round" stroke-width="8"></path>
    </g>
    <g id="sprite16" transform="matrix(1, 0, 0, 1, 1400, 56.75)">
      <use height="100" transform="matrix(1, 0, 0, 1, 0, -50)" width="1500" xlink:href="#shape1"></use>
      <use height="94.9" transform="matrix(1, 0, 0, 1, 2.7, -47.75)" width="95.55" xlink:href="#sprite17"></use>
      <use height="35.95" transform="matrix(1, 0, 0, 1, 102.1, 15.05)" width="96.9" xlink:href="#sprite18"></use>
      <use height="40.95" transform="matrix(1, 0, 0, 1, 230.2, -20.5)" width="39.9" xlink:href="#sprite19"></use>
      <use height="39.4" transform="matrix(1, 0, 0, 1, 320.55, -19.75)" width="58" xlink:href="#sprite20"></use>
      <use height="95" transform="matrix(1, 0, 0, 1, 461.7, -47)" width="36.95" xlink:href="#sprite21"></use>
      <use height="46.2" transform="matrix(1, 0, 0, 1, 529.5, -21.4)" width="38.55" xlink:href="#sprite22"></use>
      <use height="34.4" transform="matrix(1, 0, 0, 1, 635.15, -15.1)" width="62.45" xlink:href="#sprite23"></use>
      <use height="95.75" transform="matrix(1, 0, 0, 1, 768.7, -48.35)" width="30.25" xlink:href="#sprite24"></use>
      <use height="30.95" transform="matrix(1, 0, 0, 1, 801.95, -15.5)" width="31.9" xlink:href="#sprite25"></use>
      <use height="38.1" transform="matrix(1, 0, 0, 1, 945.7, -19.65)" width="8" xlink:href="#sprite26"></use>
      <use height="37" transform="matrix(1, 0, 0, 1, 1028.4, -48.65)" width="69.2" xlink:href="#sprite27"></use>
      <use height="41.4" transform="matrix(1, 0, 0, 1, 1129.35, -16.55)" width="36.2" xlink:href="#sprite28"></use>
      <use height="44.25" transform="matrix(1, 0, 0, 1, 1223.8, -24.05)" width="30.2" xlink:href="#sprite29"></use>
      <use height="35.05" transform="matrix(1, 0, 0, 1, 1332.95, -48.35)" width="33.85" xlink:href="#sprite30"></use>
      <use height="38.7" transform="matrix(1, 0, 0, 1, 1403.4, -48)" width="94.55" xlink:href="#sprite31"></use>
    </g>
    <g id="sprite17" transform="matrix(1, 0, 0, 1, 3, 4)">
      <use height="94.9" transform="matrix(1, 0, 0, 1, -3, -4)" width="95.55" xlink:href="#shape17"></use>
    </g>
    <g id="shape17" transform="matrix(1, 0, 0, 1, 3, 4)">
      <path d="M1.0 0.0 L88.55 0.0 88.55 86.9" fill="none" stroke="#feeb9d" stroke-linecap="round" stroke-linejoin="round" stroke-width="8"></path>
    </g>
    <g id="sprite18" transform="matrix(1, 0, 0, 1, 4, 3.1)">
      <use height="35.95" transform="matrix(1, 0, 0, 1, -4, -3.1)" width="96.9" xlink:href="#shape18"></use>
    </g>
    <g id="shape18" transform="matrix(1, 0, 0, 1, 4, 3.1)">
      <path d="M0.0 28.85 Q26.15 19.55 45.35 0.9 63.7 19.45 88.9 28.85" fill="none" stroke="#feeb9d" stroke-linecap="round" stroke-linejoin="round" stroke-width="8"></path>
    </g>
    <g id="sprite19" transform="matrix(1, 0, 0, 1, 6, 8)">
      <use height="40.95" transform="matrix(1, 0, 0, 1, -6, -8)" width="39.9" xlink:href="#shape19"></use>
    </g>
    <g id="shape19" transform="matrix(1, 0, 0, 1, 6, 8)">
      <path d="M29.9 28.95 L-2.0 28.95 -2.0 -4.0 29.9 -4.0 29.9 28.95 Z" fill="none" stroke="#feeb9d" stroke-linecap="round" stroke-linejoin="round" stroke-width="8"></path>
    </g>
    <g id="sprite20" transform="matrix(1, 0, 0, 1, 5, 4.2)">
      <use height="39.4" transform="matrix(1, 0, 0, 1, -5, -4.2)" width="58" xlink:href="#shape20"></use>
    </g>
    <g id="shape20" transform="matrix(1, 0, 0, 1, 5, 4.2)">
      <path d="M49.0 31.2 L-1.0 31.2 -1.0 -0.2 49.0 -0.2 49.0 31.2 Z" fill="none" stroke="#feeb9d" stroke-linecap="round" stroke-linejoin="round" stroke-width="8"></path>
    </g>
    <g id="sprite21" transform="matrix(1, 0, 0, 1, 6.75, 4)">
      <use height="95" transform="matrix(1, 0, 0, 1, -6.75, -4)" width="36.95" xlink:href="#shape21"></use>
    </g>
    <g id="shape21" transform="matrix(1, 0, 0, 1, 6.75, 4)">
      <path d="M-2.75 0.0 Q-2.85 46.7 -1.9 73.5 -0.9 76.65 0.35 79.0 4.55 87.0 11.4 87.0 18.2 87.0 22.95 78.5 24.5 75.8 25.6 72.65 L26.2 0" fill="none" stroke="#feeb9d" stroke-linecap="round" stroke-linejoin="round" stroke-width="8"></path>
    </g>
    <g id="sprite22" transform="matrix(1, 0, 0, 1, 4, 3.95)">
      <use height="46.2" transform="matrix(1, 0, 0, 1, -4, -3.95)" width="38.55" xlink:href="#shape22"></use>
    </g>
    <g id="shape22" transform="matrix(1, 0, 0, 1, 4, 3.95)">
      <path d="M8.95 38.25 Q15.25 38.15 21.05 34.65 28.0 30.4 29.95 22.5 31.9 14.65 27.7 7.65 24.35 2.05 18.0 0.5 L13.75 0.05 Q9.75 0.1 6.1 2.3 1.65 5.0 0.4 10.05 -0.85 15.15 1.85 19.6 4.0 23.15 8.05 24.15 12.1 25.15 15.65 23.0 18.5 21.25 19.3 18.05 20.1 14.8 18.4 11.95" fill="none" stroke="#feeb9d" stroke-linecap="round" stroke-linejoin="round" stroke-width="8"></path>
    </g>
    <g id="sprite23" transform="matrix(1, 0, 0, 1, 4, 3.6)">
      <use height="34.4" transform="matrix(1, 0, 0, 1, -4, -3.6)" width="62.45" xlink:href="#shape23"></use>
    </g>
    <g id="shape23" transform="matrix(1, 0, 0, 1, 4, 3.6)">
      <path d="M32.25 26.8 L32.25 0.4 54.45 0.4 54.45 26.8 M30.25 26.75 L0.0 26.75" fill="none" stroke="#feeb9d" stroke-linecap="round" stroke-linejoin="round" stroke-width="8"></path>
    </g>
    <g id="sprite24" transform="matrix(1, 0, 0, 1, 3, 4.9)">
      <use height="95.75" transform="matrix(1, 0, 0, 1, -3, -4.9)" width="30.25" xlink:href="#shape24"></use>
    </g>
    <g id="shape24" transform="matrix(1, 0, 0, 1, 3, 4.9)">
      <path d="M23.25 86.85 L23.25 44.0 1.0 44.0 M23.25 -0.9 L23.25 44" fill="none" stroke="#feeb9d" stroke-linecap="round" stroke-linejoin="round" stroke-width="8"></path>
    </g>
    <g id="sprite25" transform="matrix(1, 0, 0, 1, 1, 4)">
      <use height="30.95" transform="matrix(1, 0, 0, 1, -1, -4)" width="31.9" xlink:href="#shape25"></use>
    </g>
    <g id="shape25" transform="matrix(1, 0, 0, 1, 1, 4)">
      <path d="M3.0 22.95 L3.0 0.0 26.9 0.0 26.9 22.95 3.0 22.95 Z" fill="none" stroke="#feeb9d" stroke-linecap="round" stroke-linejoin="round" stroke-width="8"></path>
    </g>
    <g id="sprite26" transform="matrix(1, 0, 0, 1, 4, 4)">
      <use height="38.1" transform="matrix(1, 0, 0, 1, -4, -4)" width="8" xlink:href="#shape26"></use>
    </g>
    <g id="shape26" transform="matrix(1, 0, 0, 1, 4, 4)">
      <path d="M0.0 30.1 L0.0 0" fill="none" stroke="#feeb9d" stroke-linecap="round" stroke-linejoin="round" stroke-width="8"></path>
    </g>
    <g id="sprite27" transform="matrix(1, 0, 0, 1, 7, 2.95)">
      <use height="37" transform="matrix(1, 0, 0, 1, -7, -2.95)" width="69.2" xlink:href="#shape27"></use>
    </g>
    <g id="shape27" transform="matrix(1, 0, 0, 1, 7, 2.95)">
      <path d="M58.2 30.05 L-3.0 30.05 30.2 1.05" fill="none" stroke="#feeb9d" stroke-linecap="round" stroke-linejoin="round" stroke-width="8"></path>
    </g>
    <g id="sprite28" transform="matrix(1, 0, 0, 1, 10, 4.05)">
      <use height="41.4" transform="matrix(1, 0, 0, 1, -10, -4.05)" width="36.2" xlink:href="#shape28"></use>
    </g>
    <g id="shape28" transform="matrix(1, 0, 0, 1, 10, 4.05)">
      <path d="M22.2 -0.05 L22.2 33.35 -6.0 33.35" fill="none" stroke="#feeb9d" stroke-linecap="round" stroke-linejoin="round" stroke-width="8"></path>
    </g>
    <g id="sprite29" transform="matrix(1, 0, 0, 1, 4, 4)">
      <use height="44.25" transform="matrix(1, 0, 0, 1, -4, -4)" width="30.2" xlink:href="#shape29"></use>
    </g>
    <g id="shape29" transform="matrix(1, 0, 0, 1, 4, 4)">
      <path d="M0.0 36.25 L0.0 0.0 22.2 0" fill="none" stroke="#feeb9d" stroke-linecap="round" stroke-linejoin="round" stroke-width="8"></path>
    </g>
    <g id="sprite30" transform="matrix(1, 0, 0, 1, 1.75, 4)">
      <use height="35.05" transform="matrix(1, 0, 0, 1, -1.75, -4)" width="33.85" xlink:href="#shape30"></use>
    </g>
    <g id="shape30" transform="matrix(1, 0, 0, 1, 1.75, 4)">
      <path d="M28.1 27.05 L27.4 8.5 Q26.3 6.5 25.0 5.05 22.4 2.2 20.85 1.25 18.75 0.0 15.45 0.0 12.05 0.0 9.8 1.35 8.1 2.35 5.25 5.35 3.55 7.1 2.5 9.05 L2.25 27.05" fill="none" stroke="#feeb9d" stroke-linecap="round" stroke-linejoin="round" stroke-width="8"></path>
    </g>
    <g id="sprite31" transform="matrix(1, 0, 0, 1, 0, 4)">
      <use height="38.7" transform="matrix(1, 0, 0, 1, 0, -4)" width="94.55" xlink:href="#shape31"></use>
    </g>
    <g id="shape31" transform="matrix(1, 0, 0, 1, 0, 4)">
      <path d="M90.55 30.7 L90.55 0.0 4.0 0" fill="none" stroke="#feeb9d" stroke-linecap="round" stroke-linejoin="round" stroke-width="8"></path>
    </g>
    <g id="sprite32" transform="matrix(1, 0, 0, 1, 1400, 50)">
      <use height="100" transform="matrix(1, 0, 0, 1, 0, -50)" width="1500" xlink:href="#shape1"></use>
      <use height="96.55" transform="matrix(1, 0, 0, 1, 2.5, -47.55)" width="95.95" xlink:href="#sprite33"></use>
      <use height="37.95" transform="matrix(1, 0, 0, 1, 101.75, -15)" width="96.9" xlink:href="#sprite34"></use>
      <use height="36" transform="matrix(1, 0, 0, 1, 220.2, 12.65)" width="78.95" xlink:href="#sprite35"></use>
      <use height="38.4" transform="matrix(1, 0, 0, 1, 303, -18.2)" width="96" xlink:href="#sprite36"></use>
      <use height="51.1" transform="matrix(1, 0, 0, 1, 428.75, -1.35)" width="40.75" xlink:href="#sprite37"></use>
      <use height="46.2" transform="matrix(1, 0, 0, 1, 520.5, 3.8)" width="51.25" xlink:href="#sprite38"></use>
      <use height="70.05" transform="matrix(1, 0, 0, 1, 614.6, -21.35)" width="83.1" xlink:href="#sprite39"></use>
      <use height="30.95" transform="matrix(1, 0, 0, 1, 834.85, -47.95)" width="30.9" xlink:href="#sprite40"></use>
      <use height="66.5" transform="matrix(1, 0, 0, 1, 927.25, -32.35)" width="8" xlink:href="#sprite41"></use>
      <use height="24.1" transform="matrix(1, 0, 0, 1, 1001.05, -8.45)" width="97.55" xlink:href="#sprite42"></use>
      <use height="45.2" transform="matrix(1, 0, 0, 1, 1133.3, -19.65)" width="38.3" xlink:href="#sprite43"></use>
      <use height="96" transform="matrix(1, 0, 0, 1, 1234.65, -47.85)" width="34" xlink:href="#sprite44"></use>
      <use height="96.55" transform="matrix(1, 0, 0, 1, 1327.5, -47.5)" width="25.25" xlink:href="#sprite45"></use>
      <use height="39" transform="matrix(1, 0, 0, 1, 1421, 11)" width="57" xlink:href="#sprite46"></use>
      <use height="93.95" transform="matrix(1, 0, 0, 1, 702.15, -44.95)" width="30.2" xlink:href="#button0"></use>
    </g>
    <g id="sprite33" transform="matrix(1, 0, 0, 1, 6, 4)">
      <use height="96.55" transform="matrix(1, 0, 0, 1, -6, -4)" width="95.95" xlink:href="#shape32"></use>
    </g>
    <g id="shape32" transform="matrix(1, 0, 0, 1, 6, 4)">
      <path d="M85.95 0.0 L85.95 88.55 -2.0 88.55" fill="none" stroke="#feeb9d" stroke-linecap="round" stroke-linejoin="round" stroke-width="8"></path>
    </g>
    <g id="sprite34" transform="matrix(1, 0, 0, 1, 4, -0.95)">
      <use height="37.95" transform="matrix(1, 0, 0, 1, -4, 0.95)" width="96.9" xlink:href="#shape33"></use>
    </g>
    <g id="shape33" transform="matrix(1, 0, 0, 1, 4, -0.95)">
      <path d="M0.0 34.9 Q11.5 31.3 24.4 22.0 31.25 17.1 45.35 4.95 58.8 17.0 65.4 21.95 77.85 31.2 88.9 34.9" fill="none" stroke="#feeb9d" stroke-linecap="round" stroke-linejoin="round" stroke-width="8"></path>
    </g>
    <g id="sprite35" transform="matrix(1, 0, 0, 1, 4, 4)">
      <use height="36" transform="matrix(1, 0, 0, 1, -4, -4)" width="78.95" xlink:href="#shape34"></use>
    </g>
    <g id="shape34" transform="matrix(1, 0, 0, 1, 4, 4)">
      <path d="M70.95 0.0 L0.0 0.0 27.5 28" fill="none" stroke="#feeb9d" stroke-linecap="round" stroke-linejoin="round" stroke-width="8"></path>
    </g>
    <g id="sprite36" transform="matrix(1, 0, 0, 1, 5, 4.2)">
      <use height="38.4" transform="matrix(1, 0, 0, 1, -5, -4.2)" width="96" xlink:href="#shape35"></use>
    </g>
    <g id="shape35" transform="matrix(1, 0, 0, 1, 5, 4.2)">
      <path d="M-1.0 30.2 L87.0 30.2 58.55 -0.2" fill="none" stroke="#feeb9d" stroke-linecap="round" stroke-linejoin="round" stroke-width="8"></path>
    </g>
    <g id="sprite37" transform="matrix(1, 0, 0, 1, 7.8, 4)">
      <use height="51.1" transform="matrix(1, 0, 0, 1, -7.8, -4)" width="40.75" xlink:href="#shape36"></use>
    </g>
    <g id="shape36" transform="matrix(1, 0, 0, 1, 7.8, 4)">
      <path d="M-3.8 0.0 Q-3.6 16.45 -3.1 28.55 L-0.7 35.05 Q3.85 43.0 12.3 43.1 20.75 43.0 25.9 34.55 26.5 33.5 26.9 31.75 L27.55 28.7 28.95 0" fill="none" stroke="#feeb9d" stroke-linecap="round" stroke-linejoin="round" stroke-width="8"></path>
    </g>
    <g id="sprite38" transform="matrix(1, 0, 0, 1, 4, 3.95)">
      <use height="46.2" transform="matrix(1, 0, 0, 1, -4, -3.95)" width="51.25" xlink:href="#shape37"></use>
    </g>
    <g id="shape37" transform="matrix(1, 0, 0, 1, 4, 3.95)">
      <path d="M0.0 26.3 Q1.35 28.55 3.0 30.35 7.8 35.65 15.15 37.45 21.95 39.15 28.25 37.15 31.05 36.25 33.75 34.65 40.7 30.4 42.65 22.5 44.6 14.65 40.4 7.65 37.05 2.05 30.7 0.5 L26.45 0.05 Q22.45 0.1 18.8 2.3 14.35 5.0 13.1 10.05 11.85 15.15 14.55 19.6 16.7 23.15 20.75 24.15 24.8 25.15 28.35 23.0 31.2 21.25 32.0 18.05 32.8 14.8 31.1 11.95" fill="none" stroke="#feeb9d" stroke-linecap="round" stroke-linejoin="round" stroke-width="8"></path>
    </g>
    <g id="sprite39" transform="matrix(1, 0, 0, 1, 5, 4)">
      <use height="70.05" transform="matrix(1, 0, 0, 1, -5, -4)" width="83.1" xlink:href="#shape38"></use>
    </g>
    <g id="shape38" transform="matrix(1, 0, 0, 1, 5, 4)">
      <path d="M74.0 0.0 L74.0 35.0 -1.0 35.0 M-1.0 38.0 L-1.0 62.0 74.1 62.05" fill="none" stroke="#feeb9d" stroke-linecap="round" stroke-linejoin="round" stroke-width="8"></path>
    </g>
    <g id="sprite40" transform="matrix(1, 0, 0, 1, 0, 2)">
      <use height="30.95" transform="matrix(1, 0, 0, 1, 0, -2)" width="30.9" xlink:href="#shape39"></use>
    </g>
    <g id="shape39" transform="matrix(1, 0, 0, 1, 0, 2)">
      <path d="M4.0 24.95 L4.0 2.0 26.9 2.0 26.9 24.95 4.0 24.95 Z" fill="none" stroke="#feeb9d" stroke-linecap="round" stroke-linejoin="round" stroke-width="8"></path>
    </g>
    <g id="sprite41" transform="matrix(1, 0, 0, 1, 7, 4)">
      <use height="66.5" transform="matrix(1, 0, 0, 1, -7, -4)" width="8" xlink:href="#shape40"></use>
    </g>
    <g id="shape40" transform="matrix(1, 0, 0, 1, 7, 4)">
      <path d="M-3.0 0.0 L-3.0 58.5" fill="none" stroke="#feeb9d" stroke-linecap="round" stroke-linejoin="round" stroke-width="8"></path>
    </g>
    <g id="sprite42" transform="matrix(1, 0, 0, 1, 4, 3.95)">
      <use height="24.1" transform="matrix(1, 0, 0, 1, -4, -3.95)" width="97.55" xlink:href="#shape41"></use>
    </g>
    <g id="shape41" transform="matrix(1, 0, 0, 1, 4, 3.95)">
      <path d="M89.55 16.15 Q65.05 0.05 43.45 0.05 21.8 0.05 0.0 16.15" fill="none" stroke="#feeb9d" stroke-linecap="round" stroke-linejoin="round" stroke-width="8"></path>
    </g>
    <g id="sprite43" transform="matrix(1, 0, 0, 1, 5, 8)">
      <use height="45.2" transform="matrix(1, 0, 0, 1, -5, -8)" width="38.3" xlink:href="#shape42"></use>
    </g>
    <g id="shape42" transform="matrix(1, 0, 0, 1, 5, 8)">
      <path d="M-1.0 -4.0 L-1.0 33.2 29.3 33.2" fill="none" stroke="#feeb9d" stroke-linecap="round" stroke-linejoin="round" stroke-width="8"></path>
    </g>
    <g id="sprite44" transform="matrix(1, 0, 0, 1, 2, 5)">
      <use height="96" transform="matrix(1, 0, 0, 1, -2, -5)" width="34" xlink:href="#shape43"></use>
    </g>
    <g id="shape43" transform="matrix(1, 0, 0, 1, 2, 5)">
      <path d="M2.0 -1.0 L2.0 87.0 28.0 60.55" fill="none" stroke="#feeb9d" stroke-linecap="round" stroke-linejoin="round" stroke-width="8"></path>
    </g>
    <g id="sprite45" transform="matrix(1, 0, 0, 1, 3.9, 1)">
      <use height="96.55" transform="matrix(1, 0, 0, 1, -3.9, -1)" width="25.25" xlink:href="#shape44"></use>
    </g>
    <g id="shape44" transform="matrix(1, 0, 0, 1, 3.9, 1)">
      <path d="M16.35 91.55 Q-0.25 65.15 0.1 45.95 0.45 27.25 17.35 3" fill="none" stroke="#feeb9d" stroke-linecap="round" stroke-linejoin="round" stroke-width="8"></path>
    </g>
    <g id="sprite46" transform="matrix(1, 0, 0, 1, 4, 4)">
      <use height="39" transform="matrix(1, 0, 0, 1, -4, -4)" width="57" xlink:href="#shape16"></use>
    </g>
    <g id="button0" transform="matrix(1, 0, 0, 1, 13.1, 46.95)">
      <use height="93.95" transform="matrix(1, 0, 0, 1, -13.1, -46.95)" width="30.2" xlink:href="#shape45"></use>
    </g>
    <g id="shape45" transform="matrix(1, 0, 0, 1, 13.1, 46.95)">
      <path d="M-9.1 43.0 L-9.1 -1.0 -9.1 -42.95 M-9.1 -1.0 L13.1 -1" fill="none" stroke="#feeb9d" stroke-linecap="round" stroke-linejoin="round" stroke-width="8"></path>
    </g>
    <g id="sprite47" transform="matrix(1, 0, 0, 1, 1400, 60.5)">
      <use height="100" transform="matrix(1, 0, 0, 1, 0, -50)" width="1500" xlink:href="#shape1"></use>
      <use height="96.55" transform="matrix(1, 0, 0, 1, 2.4, -48.2)" width="96.9" xlink:href="#sprite48"></use>
      <use height="31.75" transform="matrix(1, 0, 0, 1, 103.05, -46.35)" width="95.9" xlink:href="#sprite49"></use>
      <use height="33.1" transform="matrix(1, 0, 0, 1, 201.05, -49.1)" width="97.8" xlink:href="#sprite50"></use>
      <use height="38.8" transform="matrix(1, 0, 0, 1, 302, -49.25)" width="97" xlink:href="#sprite51"></use>
      <use height="95" transform="matrix(1, 0, 0, 1, 430.2, -48)" width="40.05" xlink:href="#sprite52"></use>
      <use height="34.7" transform="matrix(1, 0, 0, 1, 503.1, -48.1)" width="93.9" xlink:href="#sprite53"></use>
      <use height="24.65" transform="matrix(1, 0, 0, 1, 602.05, -48.2)" width="96.55" xlink:href="#sprite54"></use>
      <use height="19.65" transform="matrix(1, 0, 0, 1, 730.2, 29.35)" width="68.4" xlink:href="#sprite55"></use>
      <use height="32.95" transform="matrix(1, 0, 0, 1, 866.75, -17.1)" width="31.9" xlink:href="#sprite56"></use>
      <use height="66.5" transform="matrix(1, 0, 0, 1, 963.3, -30.6)" width="8" xlink:href="#sprite57"></use>
      <use height="95.9" transform="matrix(1, 0, 0, 1, 1024.45, -45.45)" width="42.2" xlink:href="#sprite58"></use>
      <use height="36.75" transform="matrix(1, 0, 0, 1, 1133.3, -49.75)" width="33.7" xlink:href="#sprite59"></use>
      <use height="31.9" transform="matrix(1, 0, 0, 1, 1200.75, -48.65)" width="33.2" xlink:href="#sprite60"></use>
      <use height="97" transform="matrix(1, 0, 0, 1, 1300.7, -48.9)" width="38" xlink:href="#sprite61"></use>
      <use height="24.9" transform="matrix(1, 0, 0, 1, 1400.85, 13.8)" width="97.55" xlink:href="#sprite62"></use>
    </g>
    <g id="sprite48" transform="matrix(1, 0, 0, 1, 2, 3)">
      <use height="96.55" transform="matrix(1, 0, 0, 1, -2, -3)" width="96.9" xlink:href="#shape46"></use>
    </g>
    <g id="shape46" transform="matrix(1, 0, 0, 1, 2, 3)">
      <path d="M2.0 89.55 L2.0 1.0 90.9 1" fill="none" stroke="#feeb9d" stroke-linecap="round" stroke-linejoin="round" stroke-width="8"></path>
    </g>
    <g id="sprite49" transform="matrix(1, 0, 0, 1, 4, -1)">
      <use height="31.75" transform="matrix(1, 0, 0, 1, -4, 1)" width="95.9" xlink:href="#shape47"></use>
    </g>
    <g id="shape47" transform="matrix(1, 0, 0, 1, 4, -1)">
      <path d="M0.0 28.75 Q26.15 20.85 45.35 5.0 64.25 21.25 87.9 28.75" fill="none" stroke="#feeb9d" stroke-linecap="round" stroke-linejoin="round" stroke-width="8"></path>
    </g>
    <g id="sprite50" transform="matrix(1, 0, 0, 1, 6.95, 4)">
      <use height="33.1" transform="matrix(1, 0, 0, 1, -6.95, -4)" width="97.8" xlink:href="#shape48"></use>
    </g>
    <g id="shape48" transform="matrix(1, 0, 0, 1, 6.95, 4)">
      <path d="M86.85 0.0 L43.0 0.0 43.0 25.1 M-2.95 0.0 L43.0 0" fill="none" stroke="#feeb9d" stroke-linecap="round" stroke-linejoin="round" stroke-width="8"></path>
    </g>
    <g id="sprite51" transform="matrix(1, 0, 0, 1, 4, 2.9)">
      <use height="38.8" transform="matrix(1, 0, 0, 1, -4, -2.9)" width="97" xlink:href="#shape49"></use>
    </g>
    <g id="shape49" transform="matrix(1, 0, 0, 1, 4, 2.9)">
      <path d="M0.0 31.9 L89.0 31.9 60.55 1.1" fill="none" stroke="#feeb9d" stroke-linecap="round" stroke-linejoin="round" stroke-width="8"></path>
    </g>
    <g id="sprite52" transform="matrix(1, 0, 0, 1, 5.65, 4)">
      <use height="95" transform="matrix(1, 0, 0, 1, -5.65, -4)" width="40.05" xlink:href="#shape50"></use>
    </g>
    <g id="shape50" transform="matrix(1, 0, 0, 1, 5.65, 4)">
      <path d="M-1.65 0.0 Q-1.75 46.7 -0.65 73.5 0.45 76.65 1.8 79.0 6.45 87.0 14.0 87.0 21.55 87.0 26.8 78.5 28.5 75.8 29.65 72.65 L30.4 0" fill="none" stroke="#feeb9d" stroke-linecap="round" stroke-linejoin="round" stroke-width="8"></path>
    </g>
    <g id="sprite53" transform="matrix(1, 0, 0, 1, 2, 2)">
      <use height="34.7" transform="matrix(1, 0, 0, 1, -2, -2)" width="93.9" xlink:href="#shape51"></use>
    </g>
    <g id="shape51" transform="matrix(1, 0, 0, 1, 2, 2)">
      <path d="M2.0 28.7 L2.0 2.0 87.9 2" fill="none" stroke="#feeb9d" stroke-linecap="round" stroke-linejoin="round" stroke-width="8"></path>
    </g>
    <g id="sprite54" transform="matrix(1, 0, 0, 1, 2, 1)">
      <use height="24.65" transform="matrix(1, 0, 0, 1, -2, -1)" width="96.55" xlink:href="#shape52"></use>
    </g>
    <g id="shape52" transform="matrix(1, 0, 0, 1, 2, 1)">
      <path d="M2.0 4.0 Q26.3 20.0 47.65 19.65 68.6 19.25 90.55 3" fill="none" stroke="#feeb9d" stroke-linecap="round" stroke-linejoin="round" stroke-width="8"></path>
    </g>
    <g id="sprite55" transform="matrix(1, 0, 0, 1, 4, 4)">
      <use height="19.65" transform="matrix(1, 0, 0, 1, -4, -4)" width="68.4" xlink:href="#shape53"></use>
    </g>
    <g id="shape53" transform="matrix(1, 0, 0, 1, 4, 4)">
      <path d="M60.4 11.65 Q27.4 -11.6 0.0 11.65" fill="none" stroke="#feeb9d" stroke-linecap="round" stroke-linejoin="round" stroke-width="8"></path>
    </g>
    <g id="sprite56" transform="matrix(1, 0, 0, 1, 0, 5)">
      <use height="32.95" transform="matrix(1, 0, 0, 1, 0, -5)" width="31.9" xlink:href="#shape54"></use>
    </g>
    <g id="shape54" transform="matrix(1, 0, 0, 1, 0, 5)">
      <path d="M27.9 -1.0 L27.9 23.95 4.0 23.95 4.0 -1.0 27.9 -1.0 Z" fill="none" stroke="#feeb9d" stroke-linecap="round" stroke-linejoin="round" stroke-width="8"></path>
    </g>
    <g id="sprite57" transform="matrix(1, 0, 0, 1, 3, 4)">
      <use height="66.5" transform="matrix(1, 0, 0, 1, -3, -4)" width="8" xlink:href="#shape55"></use>
    </g>
    <g id="shape55" transform="matrix(1, 0, 0, 1, 3, 4)">
      <path d="M1.0 0.0 L1.0 58.5" fill="none" stroke="#feeb9d" stroke-linecap="round" stroke-linejoin="round" stroke-width="8"></path>
    </g>
    <g id="sprite58" transform="matrix(1, 0, 0, 1, 4, 4)">
      <use height="95.9" transform="matrix(1, 0, 0, 1, -4, -4)" width="42.2" xlink:href="#shape56"></use>
    </g>
    <g id="shape56" transform="matrix(1, 0, 0, 1, 4, 4)">
      <path d="M0.0 87.9 Q31.3 35.15 33.5 26.0 35.7 16.9 31.0 8.8 27.2 2.35 20.15 0.55 13.1 -1.25 6.85 2.65 1.8 5.75 0.45 11.65 -0.05 13.65 0.0 15.6 0.05 19.25 2.05 22.65 4.45 26.75 9.0 27.95 13.55 29.1 17.55 26.6 20.7 24.6 21.6 20.85 L21.85 17.75" fill="none" stroke="#feeb9d" stroke-linecap="round" stroke-linejoin="round" stroke-width="8"></path>
    </g>
    <g id="sprite59" transform="matrix(1, 0, 0, 1, 4.85, 4)">
      <use height="36.75" transform="matrix(1, 0, 0, 1, -4.85, -4)" width="33.7" xlink:href="#shape57"></use>
    </g>
    <g id="shape57" transform="matrix(1, 0, 0, 1, 4.85, 4)">
      <path d="M24.8 0.0 L24.85 28.75 -0.85 28.75 -0.85 2.7 -0.6 0" fill="none" stroke="#feeb9d" stroke-linecap="round" stroke-linejoin="round" stroke-width="8"></path>
    </g>
    <g id="sprite60" transform="matrix(1, 0, 0, 1, 3.2, 4)">
      <use height="31.9" transform="matrix(1, 0, 0, 1, -3.2, -4)" width="33.2" xlink:href="#shape58"></use>
    </g>
    <g id="shape58" transform="matrix(1, 0, 0, 1, 3.2, 4)">
      <path d="M0.8 0.0 L26.0 0.0 26.0 23.9 0.8 23.7" fill="none" stroke="#feeb9d" stroke-linecap="round" stroke-linejoin="round" stroke-width="8"></path>
    </g>
    <g id="sprite61" transform="matrix(1, 0, 0, 1, 4, 4)">
      <use height="97" transform="matrix(1, 0, 0, 1, -4, -4)" width="38" xlink:href="#shape59"></use>
    </g>
    <g id="shape59" transform="matrix(1, 0, 0, 1, 4, 4)">
      <path d="M0.0 0.0 L0.0 89.0 30.0 60.55" fill="none" stroke="#feeb9d" stroke-linecap="round" stroke-linejoin="round" stroke-width="8"></path>
    </g>
    <g id="sprite62" transform="matrix(1, 0, 0, 1, 0, 8)">
      <use height="24.9" transform="matrix(1, 0, 0, 1, 0, -8)" width="97.55" xlink:href="#shape60"></use>
    </g>
    <g id="shape60" transform="matrix(1, 0, 0, 1, 0, 8)">
      <path d="M4.0 -4.0 Q25.25 12.7 48.55 12.9 72.35 13.05 93.55 -4" fill="none" stroke="#feeb9d" stroke-linecap="round" stroke-linejoin="round" stroke-width="8"></path>
    </g>
  </defs>
</svg>