<svg xmlns:xlink="http://www.w3.org/1999/xlink" xmlns="http://www.w3.org/2000/svg" viewBox="20 20 99 100"><script xlink:href="https://dl.dropboxusercontent.com/s/dc5ccodrwl4h2r0/symbol.js"></script>
  
      <use height="100.45" id="letterB4" transform="matrix(1, 0, 0, 1, -1377.6, 22.1)" width="2895.95" xlink:href="#sprite0"></use>
      <use height="103.05" id="letterB3" transform="matrix(1, 0, 0, 1, -1355.15, 19.1)" width="2866.4" xlink:href="#sprite15"></use>
      <use height="103.3" id="letterB2" transform="matrix(1, 0, 0, 1, -1376.6, 21.35)" width="2864.3" xlink:href="#sprite31"></use>
      <use height="100.35" id="letterB1" transform="matrix(1, 0, 0, 1, -1373.85, 19.65)" width="2895.85" xlink:href="#sprite47"></use>
    
  <defs>
    <g id="shape0" transform="matrix(1, 0, 0, 1, -20, -20)">
      <path d="M20.0 20.0 L119.0 20.0 119.0 120.0 20.0 120.0 20.0 20" fill="#feeb9d" fill-rule="evenodd" stroke="none"></path>
    </g>
    <g id="sprite0" transform="matrix(1, 0, 0, 1, 1397.1, 48.95)">
      <use height="68.55" transform="matrix(1, 0, 0, 1, 2.9, -18.75)" width="95.6" xlink:href="#sprite1"></use>
      <use height="20.75" transform="matrix(1, 0, 0, 1, 216.45, -10.95)" width="79" xlink:href="#sprite2"></use>
      <use height="94.15" transform="matrix(1, 0, 0, 1, 430.85, -46.35)" width="39.6" xlink:href="#sprite3"></use>
      <use height="66.55" transform="matrix(1, 0, 0, 1, 550.85, -44.75)" width="20.6" xlink:href="#sprite4"></use>
      <use height="15.6" transform="matrix(1, 0, 0, 1, 603.4, 34.2)" width="95.6" xlink:href="#sprite5"></use>
      <use height="17" transform="matrix(1, 0, 0, 1, 741.7, 28.9)" width="17" xlink:href="#sprite6"></use>
      <use height="36.6" transform="matrix(1, 0, 0, 1, 831.2, 13.7)" width="38.6" xlink:href="#sprite7"></use>
      <use height="6.6" transform="matrix(1, 0, 0, 1, 902.85, -19.75)" width="95.3" xlink:href="#sprite8"></use>
      <use height="37.95" transform="matrix(1, 0, 0, 1, 1000.95, -19.25)" width="37.95" xlink:href="#sprite9"></use>
      <use height="32.6" transform="matrix(1, 0, 0, 1, 1106.05, -43.45)" width="85.6" xlink:href="#sprite10"></use>
      <use height="71.5" transform="matrix(1, 0, 0, 1, 1213.85, -35.7)" width="71.5" xlink:href="#sprite11"></use>
      <use height="92.6" transform="matrix(1, 0, 0, 1, 1332.1, -44.55)" width="40.6" xlink:href="#sprite12"></use>
      <use height="36.65" transform="matrix(1, 0, 0, 1, 133.7, -17.15)" width="66.6" xlink:href="#sprite13"></use>
      <use height="24.9" transform="matrix(1, 0, 0, 1, 1401.3, 15.6)" width="97.55" xlink:href="#sprite14"></use>
      <use height="20.75" transform="matrix(1, 0, 0, 1, 308.95, -48.95)" width="79" xlink:href="#sprite2"></use>
    </g>
    <g id="sprite1" transform="matrix(1, 0, 0, 1, 3.3, 3.3)">
      <use height="68.55" transform="matrix(1, 0, 0, 1, -3.3, -3.3)" width="95.6" xlink:href="#shape1"></use>
    </g>
    <g id="shape1" transform="matrix(1, 0, 0, 1, 3.3, 3.3)">
      <path d="M0.0 1.0 L45.0 61.95 89.0 0" fill="none" stroke="#feeb9d" stroke-linecap="square" stroke-linejoin="round" stroke-width="5"></path>
    </g>
    <g id="sprite2" transform="matrix(1, 0, 0, 1, 3.3, 3.3)">
      <use height="20.75" transform="matrix(1, 0, 0, 1, -3.3, -3.3)" width="79" xlink:href="#shape2"></use>
    </g>
    <g id="shape2" transform="matrix(1, 0, 0, 1, 3.3, 3.3)">
      <path d="M0.0 14.15 Q4.85 6.1 10.35 2.95 15.45 0.0 23.8 0.0 26.45 0.0 35.75 6.5 45.05 12.95 50.85 12.95 57.9 12.95 61.95 11.2 67.2 8.9 72.4 1.95" fill="none" stroke="#feeb9d" stroke-linecap="square" stroke-linejoin="round" stroke-width="5"></path>
    </g>
    <g id="sprite3" transform="matrix(1, 0, 0, 1, 3.3, 5.9)">
      <use height="94.15" transform="matrix(1, 0, 0, 1, -3.3, -5.9)" width="39.6" xlink:href="#shape3"></use>
    </g>
    <g id="shape3" transform="matrix(1, 0, 0, 1, 3.3, 5.9)">
      <path d="M33.0 84.95 L33.0 -2.6 0.0 -2.6 0.0 84.95" fill="none" stroke="#feeb9d" stroke-linecap="square" stroke-linejoin="round" stroke-width="5"></path>
    </g>
    <g id="sprite4" transform="matrix(1, 0, 0, 1, 3.3, 3.3)">
      <use height="66.55" transform="matrix(1, 0, 0, 1, -3.3, -3.3)" width="20.6" xlink:href="#shape4"></use>
    </g>
    <g id="shape4" transform="matrix(1, 0, 0, 1, 3.3, 3.3)">
      <path d="M0.0 59.95 L14.0 59.95 14.0 0" fill="none" stroke="#feeb9d" stroke-linecap="square" stroke-linejoin="round" stroke-width="5"></path>
    </g>
    <g id="sprite5" transform="matrix(1, 0, 0, 1, 0.3, 3.3)">
      <use height="15.6" transform="matrix(1, 0, 0, 1, -0.3, -3.3)" width="95.6" xlink:href="#shape5"></use>
    </g>
    <g id="shape5" transform="matrix(1, 0, 0, 1, 0.3, 3.3)">
      <path d="M92.0 0.0 Q87.25 9.2 76.65 9.0 72.0 8.9 68.1 6.6 64.0 4.2 62.0 0.0 M33.0 0.0 Q28.25 9.2 17.65 9.0 13.0 8.9 9.1 6.6 5.0 4.2 3.0 0" fill="none" stroke="#feeb9d" stroke-linecap="square" stroke-linejoin="round" stroke-width="5"></path>
    </g>
    <g id="sprite6" transform="matrix(1, 0, 0, 1, 0, 0)">
      <use height="17" transform="matrix(1, 0, 0, 1, 0, 0)" width="17" xlink:href="#shape6"></use>
    </g>
    <g id="shape6" transform="matrix(1, 0, 0, 1, -2, 0)">
      <path d="M19.0 8.5 Q19.0 12.0 16.5 14.5 14.0 17.0 10.5 17.0 7.0 17.0 4.5 14.5 2.0 12.0 2.0 8.5 2.0 5.0 4.5 2.5 7.0 0.0 10.5 0.0 14.0 0.0 16.5 2.5 19.0 5.0 19.0 8.5" fill="#feeb9d" fill-rule="evenodd" stroke="none"></path>
    </g>
    <g id="sprite7" transform="matrix(1, 0, 0, 1, 3.3, 3.3)">
      <use height="36.6" transform="matrix(1, 0, 0, 1, -3.3, -3.3)" width="38.6" xlink:href="#shape7"></use>
    </g>
    <g id="shape7" transform="matrix(1, 0, 0, 1, 3.3, 3.3)">
      <path d="M0.0 30.0 L32.0 30.0 16.0 0" fill="none" stroke="#feeb9d" stroke-linecap="square" stroke-linejoin="round" stroke-width="5"></path>
      <path d="M16.0 0.0 L0.0 30.0 Z" fill="none" stroke="#feeb9d" stroke-linecap="square" stroke-linejoin="round" stroke-width="5"></path>
    </g>
    <g id="sprite8" transform="matrix(1, 0, 0, 1, 3.3, 3.3)">
      <use height="6.6" transform="matrix(1, 0, 0, 1, -3.3, -3.3)" width="95.3" xlink:href="#shape8"></use>
    </g>
    <g id="shape8" transform="matrix(1, 0, 0, 1, 3.3, 3.3)">
      <path d="M0.0 0.0 L88.7 0" fill="none" stroke="#feeb9d" stroke-linecap="square" stroke-linejoin="round" stroke-width="5"></path>
    </g>
    <g id="sprite9" transform="matrix(1, 0, 0, 1, 3.3, 3.3)">
      <use height="37.95" transform="matrix(1, 0, 0, 1, -3.3, -3.3)" width="37.95" xlink:href="#shape9"></use>
    </g>
    <g id="shape9" transform="matrix(1, 0, 0, 1, 3.3, 3.3)">
      <path d="M31.35 0.0 L31.35 31.35 0.0 31.35 0.0 0.0 31.35 0.0 Z" fill="none" stroke="#feeb9d" stroke-linecap="square" stroke-linejoin="round" stroke-width="5"></path>
    </g>
    <g id="sprite10" transform="matrix(1, 0, 0, 1, 6.3, 3.3)">
      <use height="32.6" transform="matrix(1, 0, 0, 1, -6.3, -3.3)" width="85.6" xlink:href="#shape10"></use>
    </g>
    <g id="shape10" transform="matrix(1, 0, 0, 1, 6.3, 3.3)">
      <path d="M76.0 0.0 L76.0 26.0 36.5 26.0 M36.5 1.0 L36.5 26" fill="none" stroke="#feeb9d" stroke-linecap="square" stroke-linejoin="round" stroke-width="5"></path>
      <path d="M36.5 26.0 L-3.0 26.0 -3.0 0" fill="none" stroke="#feeb9d" stroke-linecap="round" stroke-linejoin="round" stroke-width="5"></path>
    </g>
    <g id="sprite11" transform="matrix(1, 0, 0, 1, 3.3, 3.3)">
      <use height="71.5" transform="matrix(1, 0, 0, 1, -3.3, -3.3)" width="71.5" xlink:href="#shape11"></use>
    </g>
    <g id="shape11" transform="matrix(1, 0, 0, 1, 3.3, 3.3)">
      <path d="M32.45 0.0 Q45.9 0.0 55.4 9.5 64.9 19.0 64.9 32.45 64.9 45.9 55.4 55.4 45.9 64.9 32.45 64.9 19.0 64.9 9.5 55.4 0.0 45.9 0.0 32.45 0.0 19.0 9.5 9.5 19.0 0.0 32.45 0.0 Z" fill="none" stroke="#feeb9d" stroke-linecap="square" stroke-linejoin="round" stroke-width="5"></path>
    </g>
    <g id="sprite12" transform="matrix(1, 0, 0, 1, 1.3, 3.3)">
      <use height="92.6" transform="matrix(1, 0, 0, 1, -1.3, -3.3)" width="40.6" xlink:href="#shape12"></use>
    </g>
    <g id="shape12" transform="matrix(1, 0, 0, 1, 1.3, 3.3)">
      <path d="M36.0 0.0 L36.0 86" fill="none" stroke="#feeb9d" stroke-linecap="square" stroke-linejoin="round" stroke-width="5"></path>
      <path d="M2.0 0.0 L2.0 86" fill="none" stroke="#feeb9d" stroke-linecap="square" stroke-linejoin="round" stroke-width="5"></path>
    </g>
    <g id="sprite13" transform="matrix(1, 0, 0, 1, -28.05, -28)">
      <use height="36.65" transform="matrix(1, 0, 0, 1, 28.05, 28)" width="66.6" xlink:href="#shape13"></use>
    </g>
    <g id="shape13" transform="matrix(1, 0, 0, 1, -28.05, -28)">
      <path d="M31.35 31.3 L91.35 61.35" fill="none" stroke="#feeb9d" stroke-linecap="square" stroke-linejoin="round" stroke-width="5"></path>
    </g>
    <g id="sprite14" transform="matrix(1, 0, 0, 1, 4, 1)">
      <use height="24.9" transform="matrix(1, 0, 0, 1, -4, -1)" width="97.55" xlink:href="#shape14"></use>
    </g>
    <g id="shape14" transform="matrix(1, 0, 0, 1, 4, 1)">
      <path d="M0.0 3.0 Q21.25 19.7 44.55 19.9 68.35 20.05 89.55 3" fill="none" stroke="#feeb9d" stroke-linecap="square" stroke-linejoin="round" stroke-width="6"></path>
    </g>
    <g id="sprite15" transform="matrix(1, 0, 0, 1, 1365.7, 50.1)">
      <use height="66.55" transform="matrix(1, 0, 0, 1, 42.25, -45.3)" width="20.6" xlink:href="#sprite16"></use>
      <use height="65.2" transform="matrix(1, 0, 0, 1, 213.7, -15.2)" width="96.1" xlink:href="#sprite17"></use>
      <use height="36.6" transform="matrix(1, 0, 0, 1, 441.7, -47.25)" width="38.6" xlink:href="#sprite18"></use>
      <use height="33.3" transform="matrix(1, 0, 0, 1, 515.35, 18.5)" width="92.5" xlink:href="#sprite19"></use>
      <use height="91.6" transform="matrix(1, 0, 0, 1, 626.3, -43.7)" width="67.15" xlink:href="#sprite20"></use>
      <use height="17.25" transform="matrix(1, 0, 0, 1, 715.15, -7.1)" width="86.7" xlink:href="#sprite21"></use>
      <use height="38.6" transform="matrix(1, 0, 0, 1, 812.1, -16.95)" width="36.6" xlink:href="#sprite22"></use>
      <use height="6.6" transform="matrix(1, 0, 0, 1, 916.2, 15.6)" width="93.6" xlink:href="#sprite23"></use>
      <use height="37.3" transform="matrix(1, 0, 0, 1, 1074.25, -17.1)" width="38.75" xlink:href="#sprite24"></use>
      <use height="95.6" transform="matrix(1, 0, 0, 1, 1215.2, -46.4)" width="95.6" xlink:href="#sprite25"></use>
      <use height="94.6" transform="matrix(1, 0, 0, 1, 1325.2, -45.4)" width="72.2" xlink:href="#sprite26"></use>
      <use height="36.6" transform="matrix(1, 0, 0, 1, 1114.35, 16.35)" width="66.35" xlink:href="#sprite27"></use>
      <use height="32.6" transform="matrix(1, 0, 0, 1, 1476.4, -16.25)" width="24.3" xlink:href="#sprite28"></use>
      <use height="36.6" transform="matrix(1, 0, 0, 1, 160.3, -0.05)" width="36.6" xlink:href="#sprite29"></use>
      <use height="24.9" transform="matrix(1, 0, 0, 1, 314.1, 11.5)" width="97.55" xlink:href="#sprite30"></use>
    </g>
    <g id="sprite16" transform="matrix(1, 0, 0, 1, 3.3, 2.3)">
      <use height="66.55" transform="matrix(1, 0, 0, 1, -3.3, -2.3)" width="20.6" xlink:href="#shape15"></use>
    </g>
    <g id="shape15" transform="matrix(1, 0, 0, 1, 3.3, 2.3)">
      <path d="M14.0 1.0 L0.0 1.0 0.0 60.95" fill="none" stroke="#feeb9d" stroke-linecap="square" stroke-linejoin="round" stroke-width="5"></path>
    </g>
    <g id="sprite17" transform="matrix(1, 0, 0, 1, 7.2, 3.3)">
      <use height="65.2" transform="matrix(1, 0, 0, 1, -7.2, -3.3)" width="96.1" xlink:href="#shape16"></use>
    </g>
    <g id="shape16" transform="matrix(1, 0, 0, 1, 7.2, 3.3)">
      <path d="M85.6 0.0 L-3.9 0.0 85.6 58.6 85.6 0.0 Z" fill="none" stroke="#feeb9d" stroke-linecap="square" stroke-linejoin="round" stroke-width="5"></path>
    </g>
    <g id="sprite18" transform="matrix(1, 0, 0, 1, 3.3, 3.3)">
      <use height="36.6" transform="matrix(1, 0, 0, 1, -3.3, -3.3)" width="38.6" xlink:href="#shape17"></use>
    </g>
    <g id="shape17" transform="matrix(1, 0, 0, 1, 3.3, 3.3)">
      <path d="M16.0 0.0 L0.0 30.0 32.0 30.0 16.0 0.0 Z" fill="none" stroke="#feeb9d" stroke-linecap="square" stroke-linejoin="round" stroke-width="5"></path>
    </g>
    <g id="sprite19" transform="matrix(1, 0, 0, 1, 3.3, 3.3)">
      <use height="33.3" transform="matrix(1, 0, 0, 1, -3.3, -3.3)" width="92.5" xlink:href="#shape18"></use>
    </g>
    <g id="shape18" transform="matrix(1, 0, 0, 1, -0.7, 3.3)">
      <path d="M4.0 0.0 L46.95 13.35 M89.9 26.7 L46.95 13.35" fill="none" stroke="#feeb9d" stroke-linecap="square" stroke-linejoin="round" stroke-width="5"></path>
      <path d="M46.95 13.35 L89.9 0.0 M46.95 13.35 L4.0 26.7" fill="none" stroke="#feeb9d" stroke-linecap="round" stroke-linejoin="round" stroke-width="5"></path>
    </g>
    <g id="sprite20" transform="matrix(1, 0, 0, 1, 3.3, 4.6)">
      <use height="91.6" transform="matrix(1, 0, 0, 1, -3.3, -4.6)" width="67.15" xlink:href="#shape19"></use>
    </g>
    <g id="shape19" transform="matrix(1, 0, 0, 1, 3.3, 4.6)">
      <path d="M37.15 -1.3 L60.55 83.7 24.6 83.7 0.0 -1.3 37.15 -1.3 Z" fill="none" stroke="#feeb9d" stroke-linecap="square" stroke-linejoin="round" stroke-width="5"></path>
    </g>
    <g id="sprite21" transform="matrix(1, 0, 0, 1, 0, 0)">
      <use height="17.25" transform="matrix(1, 0, 0, 1, 0, 0)" width="86.7" xlink:href="#shape20"></use>
    </g>
    <g id="shape20" transform="matrix(1, 0, 0, 1, 0, 0)">
      <path d="M84.2 2.5 Q86.7 5.0 86.7 8.5 86.7 12.0 84.2 14.5 81.7 17.0 78.2 17.0 74.7 17.0 72.2 14.5 69.7 12.0 69.7 8.5 69.7 5.0 72.2 2.5 74.7 0.0 78.2 0.0 81.7 0.0 84.2 2.5 M8.5 0.25 Q12.0 0.25 14.5 2.75 17.0 5.25 17.0 8.75 17.0 12.25 14.5 14.75 12.0 17.25 8.5 17.25 5.0 17.25 2.5 14.75 0.0 12.25 0.0 8.75 0.0 5.25 2.5 2.75 5.0 0.25 8.5 0.25" fill="#feeb9d" fill-rule="evenodd" stroke="none"></path>
    </g>
    <g id="sprite22" transform="matrix(1, 0, 0, 1, 3.3, 3.3)">
      <use height="38.6" transform="matrix(1, 0, 0, 1, -3.3, -3.3)" width="36.6" xlink:href="#shape21"></use>
    </g>
    <g id="shape21" transform="matrix(1, 0, 0, 1, 3.3, 3.3)">
      <path d="M30.0 16.0 L0.0 0.0 0.0 32.0 30.0 16.0 Z" fill="none" stroke="#feeb9d" stroke-linecap="square" stroke-linejoin="round" stroke-width="5"></path>
    </g>
    <g id="sprite23" transform="matrix(1, 0, 0, 1, -0.7, 1.3)">
      <use height="6.6" transform="matrix(1, 0, 0, 1, 0.7, -1.3)" width="93.6" xlink:href="#shape22"></use>
    </g>
    <g id="shape22" transform="matrix(1, 0, 0, 1, -0.7, 1.3)">
      <path d="M4.0 2.0 L91.0 2" fill="none" stroke="#feeb9d" stroke-linecap="square" stroke-linejoin="round" stroke-width="5"></path>
    </g>
    <g id="sprite24" transform="matrix(1, 0, 0, 1, 3.3, 3.3)">
      <use height="37.3" transform="matrix(1, 0, 0, 1, -3.3, -3.3)" width="38.75" xlink:href="#shape23"></use>
    </g>
    <g id="shape23" transform="matrix(1, 0, 0, 1, 3.3, 3.3)">
      <path d="M0.0 0.0 L32.15 0.0 32.15 30.7 0.0 30.7 0.0 0.0 Z" fill="none" stroke="#feeb9d" stroke-linecap="square" stroke-linejoin="round" stroke-width="5"></path>
    </g>
    <g id="sprite25" transform="matrix(1, 0, 0, 1, 2.3, 3.3)">
      <use height="95.6" transform="matrix(1, 0, 0, 1, -2.3, -3.3)" width="95.6" xlink:href="#shape24"></use>
    </g>
    <g id="shape24" transform="matrix(1, 0, 0, 1, 2.3, 3.3)">
      <path d="M76.95 13.0 Q90.0 26.05 90.0 44.5 90.0 62.95 76.95 75.95 63.95 89.0 45.5 89.0 27.05 89.0 14.0 75.95 1.0 62.95 1.0 44.5 1.0 26.05 14.0 13.0 27.05 0.0 45.5 0.0 63.95 0.0 76.95 13.0 Z" fill="none" stroke="#feeb9d" stroke-linecap="square" stroke-linejoin="round" stroke-width="5"></path>
    </g>
    <g id="sprite26" transform="matrix(1, 0, 0, 1, 3.3, 3.3)">
      <use height="94.6" transform="matrix(1, 0, 0, 1, -3.3, -3.3)" width="72.2" xlink:href="#shape25"></use>
    </g>
    <g id="shape25" transform="matrix(1, 0, 0, 1, 3.3, 3.3)">
      <path d="M0.0 1.0 L0.0 87.0 M65.6 0.0 L65.6 88" fill="none" stroke="#feeb9d" stroke-linecap="square" stroke-linejoin="round" stroke-width="5"></path>
    </g>
    <g id="sprite27" transform="matrix(1, 0, 0, 1, 0.3, 3.3)">
      <use height="36.6" transform="matrix(1, 0, 0, 1, -0.3, -3.3)" width="66.35" xlink:href="#shape26"></use>
    </g>
    <g id="shape26" transform="matrix(1, 0, 0, 1, 0.3, 3.3)">
      <path d="M3.0 30.0 L62.75 0" fill="none" stroke="#feeb9d" stroke-linecap="square" stroke-linejoin="round" stroke-width="5"></path>
    </g>
    <g id="sprite28" transform="matrix(1, 0, 0, 1, 3.3, 3.3)">
      <use height="32.6" transform="matrix(1, 0, 0, 1, -3.3, -3.3)" width="24.3" xlink:href="#shape27"></use>
    </g>
    <g id="shape27" transform="matrix(1, 0, 0, 1, 3.3, 3.3)">
      <path d="M0.0 0.05 Q10.35 -0.45 15.5 8.8 17.7 12.9 17.7 17.45 17.65 22.15 15.0 26" fill="none" stroke="#feeb9d" stroke-linecap="square" stroke-linejoin="round" stroke-width="5"></path>
    </g>
    <g id="sprite29" transform="matrix(1, 0, 0, 1, 0, 0)">
      <use height="17" transform="matrix(2.1529, 0, 0, 2.1529, 0.0059, 0)" width="17" xlink:href="#shape6"></use>
    </g>
    <g id="sprite30" transform="matrix(1, 0, 0, 1, 33.8, -55.5)">
      <use height="24.9" transform="matrix(1, 0, 0, 1, -33.8, 55.5)" width="97.55" xlink:href="#shape28"></use>
    </g>
    <g id="shape28" transform="matrix(1, 0, 0, 1, 33.8, -55.5)">
      <path d="M59.75 76.4 Q38.5 59.7 15.2 59.5 -8.6 59.35 -29.8 76.4" fill="none" stroke="#feeb9d" stroke-linecap="square" stroke-linejoin="round" stroke-width="6"></path>
    </g>
    <g id="sprite31" transform="matrix(1, 0, 0, 1, 1398.15, 53.3)">
      <use height="95.6" transform="matrix(1, 0, 0, 1, 0.8, -49.6)" width="97.55" xlink:href="#sprite32"></use>
      <use height="66.5" transform="matrix(1, 0, 0, 1, 203.55, -21.3)" width="94.8" xlink:href="#sprite33"></use>
      <use height="39.6" transform="matrix(1, 0, 0, 1, 302.85, -51.3)" width="94.6" xlink:href="#sprite34"></use>
      <use height="36.6" transform="matrix(1, 0, 0, 1, 458.8, -53.3)" width="38.6" xlink:href="#sprite35"></use>
      <use height="33.3" transform="matrix(1, 0, 0, 1, 503.95, -23.4)" width="92.5" xlink:href="#sprite36"></use>
      <use height="94.2" transform="matrix(1, 0, 0, 1, 615.45, -49.2)" width="69.75" xlink:href="#sprite37"></use>
      <use height="17" transform="matrix(1, 0, 0, 1, 725.75, -47.95)" width="50" xlink:href="#sprite38"></use>
      <use height="36.6" transform="matrix(1, 0, 0, 1, 831.15, -53.3)" width="38.6" xlink:href="#sprite39"></use>
      <use height="95.6" transform="matrix(1, 0, 0, 1, 925.8, -50.3)" width="42.6" xlink:href="#sprite40"></use>
      <use height="38.1" transform="matrix(1, 0, 0, 1, 1028.8, -23.3)" width="38.1" xlink:href="#sprite41"></use>
      <use height="17" transform="matrix(1, 0, 0, 1, 1142.1, -12.05)" width="17" xlink:href="#sprite42"></use>
      <use height="54.6" transform="matrix(1, 0, 0, 1, 1218.6, -30.75)" width="54.6" xlink:href="#sprite43"></use>
      <use height="32.6" transform="matrix(1, 0, 0, 1, 1441.9, -49.25)" width="24.25" xlink:href="#sprite44"></use>
      <use height="68.7" transform="matrix(1, 0, 0, 1, 1345.6, -24.25)" width="39.6" xlink:href="#sprite45"></use>
      <use height="36.6" transform="matrix(1, 0, 0, 1, 114.95, -4.65)" width="36.6" xlink:href="#sprite46"></use>
    </g>
    <g id="sprite32" transform="matrix(1, 0, 0, 1, 1.4, 3.3)">
      <use height="95.6" transform="matrix(1, 0, 0, 1, -1.4, -3.3)" width="97.55" xlink:href="#shape29"></use>
    </g>
    <g id="shape29" transform="matrix(1, 0, 0, 1, 1.4, 3.3)">
      <path d="M1.95 0.0 L1.95 89.0 92.85 0.0 92.85 89" fill="none" stroke="#feeb9d" stroke-linecap="square" stroke-linejoin="round" stroke-width="5"></path>
    </g>
    <g id="sprite33" transform="matrix(1, 0, 0, 1, 4.6, 3.3)">
      <use height="66.5" transform="matrix(1, 0, 0, 1, -4.6, -3.3)" width="94.8" xlink:href="#shape30"></use>
    </g>
    <g id="shape30" transform="matrix(1, 0, 0, 1, 4.6, 3.3)">
      <path d="M-1.3 59.9 L86.9 59.9 -1.3 0.0 -1.3 59.9 Z" fill="none" stroke="#feeb9d" stroke-linecap="square" stroke-linejoin="round" stroke-width="5"></path>
    </g>
    <g id="sprite34" transform="matrix(1, 0, 0, 1, 3.3, 1.3)">
      <use height="39.6" transform="matrix(1, 0, 0, 1, -3.3, -1.3)" width="94.6" xlink:href="#shape31"></use>
    </g>
    <g id="shape31" transform="matrix(1, 0, 0, 1, 3.3, 1.3)">
      <path d="M0.0 35.0 L88.0 35.0 44.45 2.0 0.0 35.0 Z" fill="none" stroke="#feeb9d" stroke-linecap="square" stroke-linejoin="round" stroke-width="5"></path>
    </g>
    <g id="sprite35" transform="matrix(1, 0, 0, 1, 6.3, 6.3)">
      <use height="36.6" transform="matrix(1, 0, 0, 1, -6.3, -6.3)" width="38.6" xlink:href="#shape32"></use>
    </g>
    <g id="shape32" transform="matrix(1, 0, 0, 1, 6.3, 6.3)">
      <path d="M-3.0 -3.0 L13.0 27.0 29.0 -3.0 -3.0 -3.0 Z" fill="none" stroke="#feeb9d" stroke-linecap="square" stroke-linejoin="round" stroke-width="5"></path>
    </g>
    <g id="sprite36" transform="matrix(1, 0, 0, 1, 3.3, 3.3)">
      <use height="33.3" transform="matrix(1, 0, 0, 1, -3.3, -3.3)" width="92.5" xlink:href="#shape18"></use>
    </g>
    <g id="sprite37" transform="matrix(1, 0, 0, 1, 3.3, 7.2)">
      <use height="94.2" transform="matrix(1, 0, 0, 1, -3.3, -7.2)" width="69.75" xlink:href="#shape33"></use>
    </g>
    <g id="shape33" transform="matrix(1, 0, 0, 1, 3.3, 7.2)">
      <path d="M24.15 -3.9 L0.0 83.7 37.55 83.7 63.15 -3.9 24.15 -3.9 Z" fill="none" stroke="#feeb9d" stroke-linecap="square" stroke-linejoin="round" stroke-width="5"></path>
    </g>
    <g id="sprite38" transform="matrix(1, 0, 0, 1, 0, 0)">
      <use height="17" transform="matrix(1, 0, 0, 1, 0, 0)" width="50" xlink:href="#shape34"></use>
    </g>
    <g id="shape34" transform="matrix(1, 0, 0, 1, 0, 0)">
      <path d="M0.0 8.5 Q0.0 5.0 2.5 2.5 5.0 0.0 8.5 0.0 12.0 0.0 14.5 2.5 17.0 5.0 17.0 8.5 17.0 12.0 14.5 14.5 12.0 17.0 8.5 17.0 5.0 17.0 2.5 14.5 0.0 12.0 0.0 8.5 M50.0 8.5 Q50.0 12.0 47.5 14.5 45.0 17.0 41.5 17.0 38.0 17.0 35.5 14.5 33.0 12.0 33.0 8.5 33.0 5.0 35.5 2.5 38.0 0.0 41.5 0.0 45.0 0.0 47.5 2.5 50.0 5.0 50.0 8.5" fill="#feeb9d" fill-rule="evenodd" stroke="none"></path>
    </g>
    <g id="sprite39" transform="matrix(1, 0, 0, 1, 3.3, 3.3)">
      <use height="36.6" transform="matrix(1, 0, 0, 1, -3.3, -3.3)" width="38.6" xlink:href="#shape35"></use>
    </g>
    <g id="shape35" transform="matrix(1, 0, 0, 1, 3.3, 3.3)">
      <path d="M32.0 0.0 L0.0 0.0 16.0 30.0 32.0 0.0 Z" fill="none" stroke="#feeb9d" stroke-linecap="square" stroke-linejoin="round" stroke-width="5"></path>
    </g>
    <g id="sprite40" transform="matrix(1, 0, 0, 1, 5.3, 3.3)">
      <use height="95.6" transform="matrix(1, 0, 0, 1, -5.3, -3.3)" width="42.6" xlink:href="#shape36"></use>
    </g>
    <g id="shape36" transform="matrix(1, 0, 0, 1, 5.3, 3.3)">
      <path d="M34.0 89.0 L16.0 44.5 M-2.0 0.0 L16.0 44.5" fill="none" stroke="#feeb9d" stroke-linecap="square" stroke-linejoin="round" stroke-width="5"></path>
      <path d="M16.0 44.5 L0.0 89.0 M16.0 44.5 L32.0 0" fill="none" stroke="#feeb9d" stroke-linecap="round" stroke-linejoin="round" stroke-width="5"></path>
    </g>
    <g id="sprite41" transform="matrix(1, 0, 0, 1, 5.3, 5.3)">
      <use height="38.1" transform="matrix(1, 0, 0, 1, -5.3, -5.3)" width="38.1" xlink:href="#shape37"></use>
    </g>
    <g id="shape37" transform="matrix(1, 0, 0, 1, 5.3, 5.3)">
      <path d="M29.5 29.5 L-2.0 29.5 -2.0 -2.0 29.5 -2.0 29.5 29.5 Z" fill="none" stroke="#feeb9d" stroke-linecap="square" stroke-linejoin="round" stroke-width="5"></path>
    </g>
    <g id="sprite42" transform="matrix(1, 0, 0, 1, 0, 0)">
      <use height="17" transform="matrix(1, 0, 0, 1, 0, 0)" width="17" xlink:href="#shape6"></use>
    </g>
    <g id="sprite43" transform="matrix(1, 0, 0, 1, 7.3, 3.3)">
      <use height="54.6" transform="matrix(1, 0, 0, 1, -7.3, -3.3)" width="54.6" xlink:href="#shape38"></use>
    </g>
    <g id="shape38" transform="matrix(1, 0, 0, 1, 7.3, 3.3)">
      <path d="M20.0 0.0 Q29.95 0.0 36.95 7.0 44.0 14.05 44.0 24.0 44.0 33.95 36.95 40.95 29.95 48.0 20.0 48.0 10.05 48.0 3.0 40.95 -4.0 33.95 -4.0 24.0 -4.0 14.05 3.0 7.0 10.05 0.0 20.0 0.0 Z" fill="none" stroke="#feeb9d" stroke-linecap="square" stroke-linejoin="round" stroke-width="5"></path>
    </g>
    <g id="sprite44" transform="matrix(1, 0, 0, 1, -1.95, 3.3)">
      <use height="32.6" transform="matrix(1, 0, 0, 1, 1.95, -3.3)" width="24.25" xlink:href="#shape39"></use>
    </g>
    <g id="shape39" transform="matrix(1, 0, 0, 1, -1.95, 3.3)">
      <path d="M22.9 26.0 Q12.55 26.45 7.45 17.2 5.2 13.1 5.25 8.6 5.25 3.85 7.9 0" fill="none" stroke="#feeb9d" stroke-linecap="square" stroke-linejoin="round" stroke-width="5"></path>
    </g>
    <g id="sprite45" transform="matrix(1, 0, 0, 1, 3.3, 3.3)">
      <use height="68.7" transform="matrix(1, 0, 0, 1, -3.3, -3.3)" width="39.6" xlink:href="#shape40"></use>
    </g>
    <g id="shape40" transform="matrix(1, 0, 0, 1, 3.3, 3.3)">
      <path d="M0.0 62.1 L33.0 62.1 16.25 0.0 0.0 62.1 Z" fill="none" stroke="#feeb9d" stroke-linecap="square" stroke-linejoin="round" stroke-width="5"></path>
    </g>
    <g id="sprite46" transform="matrix(1, 0, 0, 1, 0, 0)">
      <use height="17" transform="matrix(2.1529, 0, 0, 2.1529, 0.0059, 0)" width="17" xlink:href="#shape6"></use>
    </g>
    <g id="sprite47" transform="matrix(1, 0, 0, 1, 1395.85, 50.35)">
      <use height="100" transform="matrix(1, 0, 0, 1, 0, -50)" width="1500" xlink:href="#shape41"></use>
      <use height="95.6" transform="matrix(1, 0, 0, 1, 1.1, -46.3)" width="96.65" xlink:href="#sprite48"></use>
      <use height="20.75" transform="matrix(1, 0, 0, 1, 214.2, 21.05)" width="79" xlink:href="#sprite49"></use>
      <use height="6.6" transform="matrix(1, 0, 0, 1, 301.65, -47.15)" width="95.6" xlink:href="#sprite50"></use>
      <use height="32.6" transform="matrix(1, 0, 0, 1, 407.6, 16.2)" width="85.6" xlink:href="#sprite51"></use>
      <use height="33.3" transform="matrix(1, 0, 0, 1, 506.75, -45.9)" width="92.5" xlink:href="#sprite52"></use>
      <use height="15.6" transform="matrix(1, 0, 0, 1, 103.95, -48.5)" width="94.55" xlink:href="#sprite53"></use>
      <use height="95.6" transform="matrix(1, 0, 0, 1, 606.6, -46.8)" width="79.6" xlink:href="#sprite54"></use>
      <use height="17" transform="matrix(1, 0, 0, 1, 742.9, -40.5)" width="17" xlink:href="#sprite55"></use>
      <use height="38.6" transform="matrix(1, 0, 0, 1, 860.85, -17.45)" width="36.6" xlink:href="#sprite56"></use>
      <use height="95.6" transform="matrix(1, 0, 0, 1, 942.6, -46.8)" width="6.6" xlink:href="#sprite57"></use>
      <use height="32.65" transform="matrix(1, 0, 0, 1, 1029.05, -42.45)" width="24.4" xlink:href="#sprite58"></use>
      <use height="60.6" transform="matrix(1, 0, 0, 1, 1131.6, -11.8)" width="36.6" xlink:href="#sprite59"></use>
      <use height="6.6" transform="matrix(1, 0, 0, 1, 1226.6, -1.8)" width="42.6" xlink:href="#sprite60"></use>
      <use height="68.7" transform="matrix(1, 0, 0, 1, 1311.35, -19.8)" width="39.6" xlink:href="#sprite61"></use>
      <use height="34.9" transform="matrix(1, 0, 0, 1, 1404, -15.05)" width="69.25" xlink:href="#sprite62"></use>
    </g>
    <g id="shape41" transform="matrix(1, 0, 0, 1, 0, 50)">
      <path d="M1500.0 50.0 L0.0 50.0 0.0 -50.0 1500.0 -50.0 1500.0 50" fill="#feeb9d" fill-opacity="0" fill-rule="evenodd" stroke="none"></path>
    </g>
    <g id="sprite48" transform="matrix(1, 0, 0, 1, 4.3, 3.3)">
      <use height="95.6" transform="matrix(1, 0, 0, 1, -4.3, -3.3)" width="96.65" xlink:href="#shape42"></use>
    </g>
    <g id="shape42" transform="matrix(1, 0, 0, 1, 4.3, 3.3)">
      <path d="M-0.95 89.0 L-0.95 0.0 89.05 89.0 89.05 0" fill="none" stroke="#feeb9d" stroke-linecap="square" stroke-linejoin="round" stroke-width="5"></path>
    </g>
    <g id="sprite49" transform="matrix(1, 0, 0, 1, 3.3, 3.3)">
      <use height="20.75" transform="matrix(1, 0, 0, 1, -3.3, -3.3)" width="79" xlink:href="#shape2"></use>
    </g>
    <g id="sprite50" transform="matrix(1, 0, 0, 1, 3.3, 3.3)">
      <use height="6.6" transform="matrix(1, 0, 0, 1, -3.3, -3.3)" width="95.6" xlink:href="#shape43"></use>
    </g>
    <g id="shape43" transform="matrix(1, 0, 0, 1, 3.3, 3.3)">
      <path d="M0.0 0.0 L89.0 0" fill="none" stroke="#feeb9d" stroke-linecap="square" stroke-linejoin="round" stroke-width="5"></path>
    </g>
    <g id="sprite51" transform="matrix(1, 0, 0, 1, 0.3, 3.3)">
      <use height="32.6" transform="matrix(1, 0, 0, 1, -0.3, -3.3)" width="85.6" xlink:href="#shape44"></use>
    </g>
    <g id="shape44" transform="matrix(1, 0, 0, 1, 0.3, 3.3)">
      <path d="M3.0 26.0 L3.0 0.0 42.5 0" fill="none" stroke="#feeb9d" stroke-linecap="square" stroke-linejoin="round" stroke-width="5"></path>
      <path d="M42.5 0.0 L82.0 0.0 82.0 26.0 M42.5 0.0 L42.5 25" fill="none" stroke="#feeb9d" stroke-linecap="round" stroke-linejoin="round" stroke-width="5"></path>
    </g>
    <g id="sprite52" transform="matrix(1, 0, 0, 1, -0.7, 3.3)">
      <use height="33.3" transform="matrix(1, 0, 0, 1, 0.7, -3.3)" width="92.5" xlink:href="#shape18"></use>
    </g>
    <g id="sprite53" transform="matrix(1, 0, 0, 1, 0.3, 3.3)">
      <use height="15.6" transform="matrix(1, 0, 0, 1, -0.3, -3.3)" width="94.55" xlink:href="#shape45"></use>
    </g>
    <g id="shape45" transform="matrix(1, 0, 0, 1, 0.3, 3.3)">
      <path d="M60.95 9.0 Q65.7 -0.2 76.3 0.0 80.95 0.1 84.85 2.4 88.95 4.8 90.95 9.0 M3.0 9.0 Q7.75 -0.2 18.35 0.0 23.0 0.1 26.9 2.4 31.0 4.8 33.0 9" fill="none" stroke="#feeb9d" stroke-linecap="square" stroke-linejoin="round" stroke-width="5"></path>
    </g>
    <g id="sprite54" transform="matrix(1, 0, 0, 1, 3.3, 3.3)">
      <use height="95.6" transform="matrix(1, 0, 0, 1, -3.3, -3.3)" width="79.6" xlink:href="#shape46"></use>
    </g>
    <g id="shape46" transform="matrix(1, 0, 0, 1, 3.3, 3.3)">
      <path d="M0.0 89.0 L18.0 0.0 38.0 89.0 58.0 0.0 73.0 89" fill="none" stroke="#feeb9d" stroke-linecap="square" stroke-linejoin="round" stroke-width="5"></path>
    </g>
    <g id="sprite55" transform="matrix(1, 0, 0, 1, -2, 0)">
      <use height="17" transform="matrix(1, 0, 0, 1, 2, 0)" width="17" xlink:href="#shape6"></use>
    </g>
    <g id="sprite56" transform="matrix(1, 0, 0, 1, 3.3, 3.3)">
      <use height="38.6" transform="matrix(1, 0, 0, 1, -3.3, -3.3)" width="36.6" xlink:href="#shape47"></use>
    </g>
    <g id="shape47" transform="matrix(1, 0, 0, 1, 3.3, 3.3)">
      <path d="M30.0 0.0 L0.0 16.0 30.0 32.0 30.0 0.0 Z" fill="none" stroke="#feeb9d" stroke-linecap="square" stroke-linejoin="round" stroke-width="5"></path>
    </g>
    <g id="sprite57" transform="matrix(1, 0, 0, 1, 3.3, 3.3)">
      <use height="95.6" transform="matrix(1, 0, 0, 1, -3.3, -3.3)" width="6.6" xlink:href="#shape48"></use>
    </g>
    <g id="shape48" transform="matrix(1, 0, 0, 1, 3.3, 3.3)">
      <path d="M0.0 0.0 L0.0 89" fill="none" stroke="#feeb9d" stroke-linecap="square" stroke-linejoin="round" stroke-width="5"></path>
    </g>
    <g id="sprite58" transform="matrix(1, 0, 0, 1, 3.3, 3.3)">
      <use height="32.65" transform="matrix(1, 0, 0, 1, -3.3, -3.3)" width="24.4" xlink:href="#shape49"></use>
    </g>
    <g id="shape49" transform="matrix(1, 0, 0, 1, 3.3, 3.3)">
      <path d="M15.0 0.0 Q20.55 8.7 15.1 17.8 12.7 21.75 8.75 24.0 4.6 26.35 0.0 26" fill="none" stroke="#feeb9d" stroke-linecap="square" stroke-linejoin="round" stroke-width="5"></path>
    </g>
    <g id="sprite59" transform="matrix(1, 0, 0, 1, 3.3, 3.3)">
      <use height="60.6" transform="matrix(1, 0, 0, 1, -3.3, -3.3)" width="36.6" xlink:href="#shape50"></use>
    </g>
    <g id="shape50" transform="matrix(1, 0, 0, 1, 3.3, 3.3)">
      <path d="M0.0 0.0 L0.0 54.0 30.0 54.0 30.0 0.0 0.0 0.0 Z" fill="none" stroke="#feeb9d" stroke-linecap="square" stroke-linejoin="round" stroke-width="5"></path>
    </g>
    <g id="sprite60" transform="matrix(1, 0, 0, 1, 3.3, 3.3)">
      <use height="6.6" transform="matrix(1, 0, 0, 1, -3.3, -3.3)" width="42.6" xlink:href="#shape51"></use>
    </g>
    <g id="shape51" transform="matrix(1, 0, 0, 1, 3.3, 3.3)">
      <path d="M0.0 0.0 L36.0 0" fill="none" stroke="#feeb9d" stroke-linecap="square" stroke-linejoin="round" stroke-width="5"></path>
    </g>
    <g id="sprite61" transform="matrix(1, 0, 0, 1, 3.3, 3.3)">
      <use height="68.7" transform="matrix(1, 0, 0, 1, -3.3, -3.3)" width="39.6" xlink:href="#shape40"></use>
    </g>
    <g id="sprite62" transform="matrix(1, 0, 0, 1, 1.8, 1.55)">
      <use height="34.9" transform="matrix(1, 0, 0, 1, -1.8, -1.55)" width="69.25" xlink:href="#shape52"></use>
    </g>
    <g id="shape52" transform="matrix(1, 0, 0, 1, 1.8, 1.55)">
      <path d="M1.5 30.05 L64.15 1.75" fill="none" stroke="#feeb9d" stroke-linecap="square" stroke-linejoin="round" stroke-width="5"></path>
    </g>
  </defs>
</svg>