<svg xmlns:xlink="http://www.w3.org/1999/xlink" xmlns="http://www.w3.org/2000/svg" viewBox="20 20 99 100"><script xlink:href="https://dl.dropboxusercontent.com/s/dc5ccodrwl4h2r0/symbol.js"></script>
  
      <use height="398.1" id="letterB4" transform="matrix(1, 0, 0, 1, -1379.4, -279.15)" width="2901.15" xlink:href="#sprite0"></use>
      <use height="398.1" id="letterB3" transform="matrix(1, 0, 0, 1, -1379.35, -179.85)" width="2901.2" xlink:href="#sprite1"></use>
      <use height="398.75" id="letterB2" transform="matrix(1, 0, 0, 1, -1377.35, -79.85)" width="2899.15" xlink:href="#sprite2"></use>
      <use height="398.1" id="letterB1" transform="matrix(1, 0, 0, 1, -1379.6, 20.7)" width="2901.25" xlink:href="#sprite3"></use>
    
  <defs>
    <g id="shape0" transform="matrix(1, 0, 0, 1, -20, -20)">
      <path d="M119.0 20.0 L119.0 120.0 20.0 120.0 20.0 20.0 119.0 20" fill="#feeb9d" fill-rule="evenodd" stroke="none"></path>
    </g>
    <g id="sprite0" transform="matrix(1, 0, 0, 1, 1398.9, 350.2)">
      <use height="398.05" transform="matrix(1, 0, 0, 1, 2, -350.2)" width="1500.25" xlink:href="#shape1"></use>
    </g>
    <g id="shape1" transform="matrix(1, 0, 0, 1, 4, 3.65)">
      <path d="M1399.0 38.8 L1409.15 35.1 Q1421.65 31.0 1433.25 28.85 1470.45 22.05 1484.9 37.65 1494.1 47.55 1491.8 59.4 1490.7 65.35 1487.7 69.3 M1487.1 190.0 Q1481.05 182.0 1472.15 181.45 1466.1 181.05 1455.85 184.55 1443.7 188.7 1440.4 189.15 1432.45 190.2 1428.05 185.0 1424.4 180.65 1420.8 172.9 1416.65 163.85 1413.4 151.8 1411.3 144.0 1411.3 136.2 L1412.05 120.95 M1343.75 90.0 L1343.75 1.5 M1388.3 101.55 Q1381.85 101.9 1377.15 106.55 1375.5 108.25 1369.65 116.55 1365.0 123.2 1360.35 126.2 1353.65 130.5 1343.75 130.3 1332.4 130.1 1325.35 125.55 1320.4 122.35 1316.25 115.65 1310.9 107.1 1309.8 105.9 1305.75 101.5 1299.4 101.55 M1346.4 290.1 Q1352.15 290.45 1356.0 285.35 1359.55 280.6 1360.05 273.35 1360.5 265.95 1357.45 259.65 1354.05 252.65 1347.3 249.7 1340.55 252.7 1336.75 259.4 1333.35 265.5 1333.35 272.65 1333.35 279.7 1336.7 284.55 1340.25 289.75 1346.4 290.1 M1357.45 333.15 Q1354.05 340.15 1347.3 343.1 1340.55 340.1 1336.75 333.4 1333.35 327.3 1333.35 320.15 1333.35 313.1 1336.7 308.25 1340.25 303.05 1346.4 302.7 1352.15 302.35 1356.0 307.45 1359.55 312.2 1360.05 319.45 1360.5 326.85 1357.45 333.15 M1400.3 388.75 Q1406.35 380.75 1415.25 380.2 1421.3 379.8 1431.55 383.3 1443.7 387.45 1447.0 387.9 1454.95 388.95 1459.35 383.75 1463.0 379.4 1466.6 371.65 1470.75 362.6 1474.0 350.55 1476.1 342.75 1476.1 334.95 L1475.35 319.7 M1398.9 290.1 L1488.45 290.1 M1287.85 14.95 Q1278.15 5.65 1260.05 17.1 1254.4 20.7 1248.6 25.9 L1243.9 30.4 1244.4 61.85 M1200.85 14.4 Q1215.65 9.2 1231.25 19.25 1239.05 24.3 1243.9 30.4 M1169.9 130.3 Q1178.4 136.35 1177.85 145.65 1177.35 154.15 1169.9 161.3 1162.95 168.0 1145.8 167.55 1129.5 167.1 1120.9 161.3 1112.8 155.8 1112.8 146.65 1112.8 137.5 1120.9 130.3 1128.35 123.7 1144.55 123.7 1160.7 123.7 1169.9 130.3 M1260.2 146.85 Q1259.95 153.8 1256.0 156.55 1252.05 159.3 1244.45 159.45 1236.55 159.6 1232.45 156.55 1228.1 153.35 1228.05 146.45 1227.95 139.4 1232.45 135.9 1237.1 132.25 1244.15 132.2 1251.35 132.15 1256.0 135.9 1260.5 139.55 1260.2 146.85 M1071.45 79.95 L1087.4 55.1 1086.8 31.9 1074.3 17.75 1061.9 32.8 1061.7 55.6 1044.95 79.95 M1113.0 87.55 Q1109.1 88.85 1105.75 86.2 1102.65 83.7 1101.45 79.0 1100.2 74.05 1101.8 69.25 1103.55 63.8 1108.55 60.25 1113.6 56.65 1127.75 56.1 M910.4 1.75 L975.35 33.95 986.1 13.05 966.9 2.3 961.2 13.05 971.95 18.7 M1043.2 190.15 L1026.55 153.35 1026.15 115.95 1014.05 102.45 1001.15 116.8 1000.85 152.25 1016.8 190.15 M1113.0 204.75 Q1109.1 203.45 1105.75 206.1 1102.65 208.6 1101.45 213.3 1100.2 218.25 1101.8 223.05 1103.55 228.5 1108.55 232.05 1113.6 235.65 1127.75 236.2 M1040.35 272.5 L1056.3 247.65 1055.7 224.45 1043.2 210.3 1030.8 225.35 1030.6 248.15 1013.85 272.5 M989.3 201.25 Q987.45 208.8 976.3 213.3 972.85 214.7 953.25 219.9 938.15 223.9 931.25 228.8 921.5 235.75 921.45 247.7 M931.9 361.25 L933.25 365.75 Q935.15 371.15 937.9 375.7 946.6 390.1 960.2 390.1 973.85 390.1 982.25 359.05 984.85 349.3 986.65 337.65 L987.9 327.95 M1044.55 388.35 L1061.2 351.55 1061.6 314.15 1073.7 300.65 1086.6 315.0 1086.9 350.45 1070.95 388.35 M1129.05 332.3 L1129.55 368.25 1124.9 364.45 Q1119.05 360.85 1113.25 361.8 1105.95 363.0 1103.75 369.95 1101.8 376.05 1104.55 382.05 1106.5 386.45 1114.7 388.85 L1122.45 390.4 M1288.65 231.05 Q1282.2 231.4 1277.5 236.05 1275.85 237.75 1270.0 246.05 1265.35 252.7 1260.7 255.7 1254.0 260.0 1244.1 259.8 1232.75 259.6 1225.7 255.05 1220.75 251.85 1216.6 245.15 1211.25 236.6 1210.15 235.4 1206.1 231.0 1199.75 231.05 M1286.4 389.05 Q1275.2 391.15 1257.6 374.65 1252.1 369.5 1246.6 363.1 L1242.25 357.75 Q1236.65 366.9 1228.6 375.4 1212.55 392.4 1200.5 389.05 M1242.25 357.75 L1242.25 329.65 M797.75 59.85 L807.9 56.15 Q820.4 52.05 832.0 49.9 869.2 43.1 883.65 58.7 892.85 68.6 890.55 80.45 889.45 86.4 886.45 90.35 M856.7 152.3 L823.9 137.6 825.55 143.4 Q826.55 150.2 823.35 155.15 819.35 161.4 812.1 160.65 805.7 160.0 801.3 155.15 798.1 151.6 799.1 143.15 L800.75 135.35 M926.75 148.4 L943.75 165.35 962.8 145.8 946.5 129.45 935.8 139.75 944.2 147.0 M678.85 1.85 L690.75 14.85 678.4 27.3 666.0 13.85 678.85 1.85 M701.45 104.0 Q701.95 118.45 719.65 133.75 728.45 141.35 737.2 146.1 L759.45 146.1 M701.45 189.9 Q700.7 176.7 718.9 160.1 727.95 151.8 737.2 146.1 M700.1 3.5 L789.65 3.5 M788.25 201.95 Q790.45 214.75 772.9 230.9 767.4 235.95 760.55 240.75 L754.85 244.5 760.3 248.95 Q766.8 254.55 772.1 260.2 789.2 278.2 788.25 289.9 M676.0 261.4 L689.55 276.1 676.0 289.65 662.45 275.55 676.0 261.4 M754.85 244.5 L726.65 244.5 M699.8 302.45 Q733.35 325.7 761.2 302.45 M861.2 231.15 L860.7 267.1 865.35 263.3 Q871.2 259.7 877.0 260.65 884.3 261.85 886.5 268.8 888.45 274.9 885.7 280.9 883.75 285.3 875.55 287.7 L867.8 289.25 M828.6 347.75 L846.4 329.05 M506.25 60.05 L507.6 64.55 Q509.5 69.95 512.25 74.5 520.95 88.9 534.55 88.9 548.2 88.9 556.6 57.85 560.8 42.3 562.25 26.75 M562.25 129.75 L564.7 130.15 Q567.65 130.75 570.1 132.0 577.85 135.95 577.5 144.4 577.15 152.85 569.65 157.2 567.35 158.55 564.55 159.35 L562.25 159.85 M613.15 189.35 L599.6 175.25 613.15 161.1 626.7 175.8 613.15 189.35 M459.1 39.5 Q488.0 46.05 481.5 29.1 474.85 11.8 459.9 35.2 L457.55 39.15 459.1 39.5 M356.25 0.35 Q357.95 5.5 358.8 11.5 360.55 23.4 356.5 27.45 351.75 32.2 344.85 32.1 338.1 31.95 333.6 27.45 329.9 23.75 331.25 13.0 331.95 7.65 333.35 3.0 L333.55 0.35 M329.9 114.6 Q325.4 110.95 321.1 110.6 316.45 110.2 314.1 113.85 311.95 117.2 313.95 121.65 315.8 125.6 320.35 129.35 324.8 132.95 329.8 134.75 335.05 136.65 338.7 135.6 L338.75 135.25 Q339.7 129.4 336.95 123.55 334.45 118.25 329.9 114.6 M433.9 138.65 L432.35 139.0 Q403.45 145.55 409.95 128.6 416.6 111.3 431.55 134.7 L433.9 138.65 M368.5 228.15 Q364.25 232.25 358.85 234.05 353.0 236.05 348.05 234.5 L347.05 234.2 347.0 233.9 Q345.7 227.95 348.05 221.75 350.25 216.05 354.65 212.0 359.05 208.0 363.65 207.4 368.6 206.8 371.85 210.6 375.1 214.4 373.9 219.45 372.8 224.0 368.5 228.15 M377.3 362.75 Q380.8 353.25 383.15 342.4 387.8 320.65 381.95 313.85 377.65 308.85 370.5 309.05 363.65 309.25 359.05 313.85 355.35 317.55 357.8 329.6 359.05 335.65 361.0 340.95 M457.1 314.35 L424.5 379.1 445.35 389.95 456.25 370.85 445.5 365.05 439.8 375.8 M399.8 234.8 Q424.3 250.9 445.9 250.9 467.55 250.9 489.35 234.8 M527.95 257.5 Q527.95 233.25 544.05 222.4 552.1 216.95 560.15 216.3 M560.7 362.65 Q560.7 338.4 544.9 324.1 540.0 319.65 534.05 316.65 L529.1 314.55 M626.0 316.0 L612.45 329.55 598.9 315.45 612.45 301.3 626.0 316.0 M228.6 45.5 L228.9 43.45 Q229.45 41.0 230.7 39.0 234.75 32.45 244.2 32.45 253.65 32.45 258.15 39.0 260.35 42.25 260.7 45.5 M275.95 180.3 Q280.45 180.05 283.05 176.05 285.65 172.1 284.3 167.7 283.1 163.7 279.2 160.45 275.4 157.3 270.75 156.1 265.85 154.9 262.1 156.5 L260.2 157.4 260.0 158.35 Q258.95 164.25 261.35 169.65 263.5 174.55 267.7 177.55 271.8 180.55 275.95 180.3 M163.8 71.6 L147.4 54.05 127.65 72.9 143.4 89.8 154.45 79.9 146.3 72.35 M12.65 68.7 Q12.65 59.55 20.75 52.35 28.2 45.75 44.4 45.75 60.55 45.75 69.75 52.35 78.25 58.4 77.7 67.7 77.2 76.2 69.75 83.35 62.8 90.05 45.65 89.6 29.35 89.15 20.75 83.35 12.65 77.85 12.65 68.7 M76.1 158.3 Q80.0 157.0 83.35 159.65 86.45 162.15 87.65 166.85 88.9 171.8 87.3 176.6 85.55 182.05 80.55 185.6 75.4 189.25 60.8 189.8 M141.2 189.35 L159.0 170.65 M99.7 201.75 Q101.55 209.3 112.7 213.8 116.15 215.2 135.75 220.4 150.85 224.4 157.75 229.3 167.5 236.25 167.55 248.2 M77.5 223.85 Q77.0 232.35 69.55 239.5 62.6 246.2 45.45 245.75 29.15 245.3 20.55 239.5 12.45 234.0 12.45 224.85 12.45 215.7 20.55 208.5 28.0 201.9 44.2 201.9 60.35 201.9 69.55 208.5 78.05 214.55 77.5 223.85 M89.55 329.15 Q68.25 312.4 45.0 312.05 21.1 311.65 0.0 328.65 M128.85 328.1 Q131.6 321.5 137.1 314.95 148.05 301.75 161.65 301.75 175.3 301.75 183.95 331.85 188.25 346.85 189.85 361.9 M199.2 229.05 Q201.45 222.35 206.45 215.65 216.4 202.2 230.0 202.2 243.65 202.2 253.05 232.3 257.75 247.3 259.7 262.35 M260.7 372.9 L270.05 375.55 Q280.25 377.35 284.3 373.4 289.15 368.65 289.0 361.3 288.85 354.0 284.0 350.0 277.3 344.55 253.15 352.1 245.6 354.45 237.2 357.85 L230.3 360.75" fill="none" stroke="#feeb9d" stroke-linecap="round" stroke-linejoin="round" stroke-width="8"></path>
    </g>
    <g id="sprite1" transform="matrix(1, 0, 0, 1, 1389.9, 249.05)">
      <use height="398.05" transform="matrix(1, 0, 0, 1, 11.05, -249.05)" width="1500.25" xlink:href="#shape1"></use>
    </g>
    <g id="sprite2" transform="matrix(1, 0, 0, 1, 1398.9, 154.5)">
      <use height="398.05" transform="matrix(1, 0, 0, 1, 0, -153.8)" width="1500.25" xlink:href="#shape1"></use>
    </g>
    <g id="sprite3" transform="matrix(1, 0, 0, 1, 1401.6, 49.3)">
      <use height="398.05" transform="matrix(1, 0, 0, 1, -0.6, -49.25)" width="1500.25" xlink:href="#shape1"></use>
    </g>
  </defs>
</svg>